<?xml version="1.0" encoding="utf-8"?>
<!-- Generator: Adobe Illustrator 24.0.0, SVG Export Plug-In . SVG Version: 6.00 Build 0)  -->
<svg version="1.1" xmlns="http://www.w3.org/2000/svg" xmlns:xlink="http://www.w3.org/1999/xlink" x="0px" y="0px"
	 viewBox="0 0 109 109" style="enable-background:new 0 0 109 109;" xml:space="preserve">
<style type="text/css">
	.st0{fill:#49CE58;}
	.st1{display:none;}
	.st2{display:inline;}
	.st3{fill:#42DBAC;}
	.st4{fill:#FFFFFF;}
	.st5{display:inline;fill:#0E8F99;}
	.st6{fill:#3D4466;}
</style>
<g id="Layer_1">
	<g id="practice_it">
		<g>
			<path class="st0" d="M57.3,73.5c-0.7,0-1.3,0.6-1.3,1.3c0,0.7,0.6,1.3,1.3,1.3s1.3-0.6,1.3-1.3S58,73.5,57.3,73.5z"/>
			<path class="st0" d="M57.5,50.1c0.1,0,0.1,0.1,0.2,0.2c0.2,0.1,0.3,0.2,0.5,0.4c0.1,0.1,0.2,0.2,0.3,0.3s0.3,0.3,0.4,0.5
				c0.1,0.1,0.1,0.1,0.2,0.2c1.1-0.8,2.2-1.8,3.2-2.8c2-2,3.2-4.2,3.9-5.8c-1.6,0.7-3.9,1.9-5.8,3.9c-1,1-1.9,2-2.7,3.1l0,0
				C57.5,50,57.5,50.1,57.5,50.1z"/>
			<path class="st0" d="M55.8,49c0.1-1,0.2-2.1,0.2-3.2c0-2.8-0.7-5.2-1.4-6.9c-0.6,1.6-1.4,4.1-1.4,6.9c0,1.3,0.1,2.5,0.2,3.7
				c0.1,0,0.3,0,0.4-0.1c0.1,0,0.3,0,0.4-0.1c0.2,0,0.4,0,0.6,0c0.1,0,0.3,0,0.4,0c0.1,0,0.1,0,0.2,0C55.6,49.2,55.7,49.1,55.8,49z"
				/>
			<path class="st0" d="M55.6,51.5L55.6,51.5c-0.3-0.1-0.6-0.1-0.9-0.1c-0.1,0-0.2,0-0.3,0c-0.2,0-0.3,0-0.5,0.1
				c-0.1,0-0.2,0-0.2,0.1c-0.2,0.1-0.5,0.2-0.7,0.3c-1,0.6-1.6,1.6-1.6,2.7c0,1.7,1.4,3.1,3.1,3.1c1.7,0,3.1-1.4,3.1-3.1
				c0-0.3,0-0.6-0.1-0.9l0,0c-0.2-0.8-0.8-1.4-1.5-1.8C56,51.6,55.8,51.5,55.6,51.5L55.6,51.5L55.6,51.5z"/>
			<path class="st0" d="M54.5,22.4c-17.7,0-32.1,14.4-32.1,32.1s14.4,32.1,32.1,32.1s32.1-14.4,32.1-32.1S72.2,22.4,54.5,22.4z
				 M28,49.5c0.6,0.1,0.9,0.6,0.9,1.2c-0.1,0.5-0.5,0.9-1,0.9c-0.1,0-0.1,0-0.1,0c-0.6-0.1-0.9-0.6-0.9-1.2S27.4,49.4,28,49.5z
				 M28,59.5h-0.1c-0.5,0-0.9-0.4-1-0.9c-0.1-0.6,0.3-1.1,0.9-1.2c0.5-0.1,1.1,0.3,1.2,0.9C28.9,58.9,28.6,59.4,28,59.5z M29.3,42.3
				c0.2-0.5,0.8-0.7,1.4-0.5c0.5,0.2,0.7,0.9,0.5,1.4c-0.2,0.4-0.5,0.6-0.9,0.6c-0.1,0-0.3,0-0.4-0.1C29.2,43.4,29,42.8,29.3,42.3z
				 M30.7,67.1c-0.1,0.1-0.3,0.1-0.4,0.1c-0.4,0-0.7-0.2-0.9-0.6c-0.2-0.5,0-1.1,0.5-1.4c0.5-0.2,1.1,0,1.4,0.5
				C31.4,66.3,31.2,66.9,30.7,67.1z M63.4,28.9c0.2-0.5,0.8-0.8,1.3-0.6l0,0c0.5,0.2,0.8,0.8,0.6,1.3c-0.2,0.4-0.5,0.7-0.9,0.7
				c-0.1,0-0.2,0-0.4-0.1C63.5,30,63.2,29.4,63.4,28.9z M56.6,26.5c0.6,0,1,0.5,0.9,1.1c0,0.5-0.5,1-1,1c0,0,0,0-0.1,0
				c-0.6,0-1-0.5-0.9-1.1C55.5,26.8,56,26.4,56.6,26.5z M48.2,27.1c0.5-0.1,1.1,0.2,1.2,0.8c0.1,0.5-0.2,1.1-0.8,1.2
				c-0.1,0-0.2,0-0.2,0c-0.5,0-0.9-0.3-1-0.8C47.4,27.8,47.7,27.2,48.2,27.1z M40.5,30.2c0.5-0.3,1.1-0.1,1.4,0.4
				c0.3,0.5,0.1,1.1-0.4,1.4c-0.2,0.1-0.3,0.1-0.5,0.1c-0.4,0-0.7-0.2-0.9-0.5C39.8,31.1,40,30.5,40.5,30.2z M34,35.4
				c0.4-0.4,1-0.4,1.4-0.1c0.4,0.4,0.4,1,0.1,1.4C35.3,36.9,35,37,34.8,37s-0.5-0.1-0.7-0.3C33.6,36.5,33.6,35.8,34,35.4z
				 M35.5,73.6c-0.2,0.2-0.4,0.3-0.7,0.3s-0.5-0.1-0.7-0.3c-0.4-0.4-0.4-1.1,0.1-1.4c0.4-0.4,1.1-0.4,1.4,0S35.9,73.2,35.5,73.6z
				 M42,78.4c-0.2,0.3-0.5,0.5-0.9,0.5c-0.2,0-0.3,0-0.5-0.1c-0.5-0.3-0.7-0.9-0.4-1.4s0.9-0.7,1.4-0.4C42.1,77.3,42.2,77.9,42,78.4
				z M49.6,81c-0.1,0.5-0.5,0.8-1,0.8c-0.1,0-0.1,0-0.2,0c-0.5-0.1-0.9-0.7-0.8-1.2c0.1-0.5,0.7-0.9,1.2-0.8l0,0
				C49.4,79.9,49.7,80.5,49.6,81z M56.7,82.4C56.7,82.4,56.6,82.4,56.7,82.4c-0.6,0-1.1-0.4-1.1-0.9c0-0.6,0.4-1.1,0.9-1.1
				c0.6,0,1,0.4,1.1,0.9C57.7,81.9,57.3,82.4,56.7,82.4z M57.3,78.3c-1.4,0-2.6-0.9-3.1-2.1C42.4,76,33,66.3,33,54.5
				c0-6.7,3.1-13,8.4-17.1h-2.3c-0.6,0-1-0.5-1-1c0-0.6,0.5-1,1-1H44c0.6,0,1,0.5,1,1v4.9c0,0.6-0.5,1-1,1c-0.6,0-1-0.5-1-1v-2.5
				c-4.9,3.7-7.9,9.5-7.9,15.7c0,10.6,8.5,19.3,19.1,19.6c0.4-1.5,1.7-2.6,3.3-2.6c1.9,0,3.4,1.5,3.4,3.4S59.1,78.3,57.3,78.3z
				 M64.8,80.5L64.8,80.5c-0.1,0-0.2,0.1-0.4,0.1c-0.4,0-0.8-0.2-0.9-0.6c-0.2-0.5,0-1.1,0.6-1.3c0.5-0.2,1.1,0,1.3,0.6
				C65.6,79.7,65.4,80.3,64.8,80.5z M68.8,41.5c-0.1,0.2-1.4,4.9-5.2,8.7c-1.3,1.3-2.7,2.5-4,3.4c0,0.3,0.1,0.5,0.1,0.8
				c0,2.8-2.3,5.2-5.2,5.2c-2.8,0-5.2-2.3-5.2-5.2c0-1.6,0.8-3.1,2.1-4.1c-0.2-1.4-0.3-3-0.3-4.6c0-5.4,2.4-9.7,2.5-9.8
				c0.2-0.3,0.5-0.5,0.9-0.5s0.7,0.2,0.9,0.5c0.1,0.2,2.5,4.5,2.5,9.8c0,0.2,0,0.5,0,0.7c0.3-0.3,0.6-0.6,0.9-1
				c3.8-3.8,8.5-5.1,8.7-5.2c0.4-0.1,0.7,0,1,0.3C68.8,40.8,68.9,41.2,68.8,41.5z M70.5,32.6c0.3-0.4,1-0.5,1.4-0.2
				c0.4,0.4,0.5,1,0.2,1.4c-0.2,0.3-0.5,0.4-0.8,0.4c-0.2,0-0.4-0.1-0.6-0.2C70.3,33.7,70.2,33.1,70.5,32.6z M72.1,76.3
				c-0.2,0.1-0.4,0.2-0.6,0.2c-0.3,0-0.6-0.1-0.8-0.4c-0.4-0.4-0.3-1.1,0.2-1.4c0.4-0.4,1.1-0.3,1.4,0.2
				C72.6,75.4,72.5,76,72.1,76.3z M81.4,62.7c-0.1,0.4-0.5,0.7-1,0.7c-0.1,0-0.2,0-0.3,0c-0.5-0.2-0.8-0.7-0.7-1.3
				c0.2-0.5,0.7-0.8,1.3-0.7C81.2,61.6,81.5,62.2,81.4,62.7z M82.6,54.3C82.6,54.3,82.6,54.4,82.6,54.3
				C82.6,54.4,82.6,54.4,82.6,54.3c0,0.7-0.5,1.1-1,1.1c-0.6,0-1-0.5-1-1l0,0c0,0,0,0,0-0.1c0-0.6,0.4-1,1-1
				C82.1,53.3,82.6,53.8,82.6,54.3z M80.1,45.4c0.5-0.2,1.1,0.1,1.3,0.7c0.2,0.5-0.1,1.1-0.7,1.3c-0.1,0-0.2,0-0.3,0
				c-0.4,0-0.8-0.3-1-0.7C79.2,46.1,79.5,45.6,80.1,45.4z M77.7,70.2c-0.2,0.3-0.5,0.4-0.8,0.4c-0.2,0-0.4-0.1-0.6-0.2
				c-0.5-0.3-0.6-0.9-0.3-1.4c0.3-0.5,0.9-0.6,1.4-0.3C77.9,69.1,78.1,69.8,77.7,70.2z M77.7,38.5c0.3,0.5,0.2,1.1-0.3,1.4
				c-0.2,0.1-0.4,0.2-0.6,0.2c-0.3,0-0.6-0.1-0.8-0.4c-0.3-0.5-0.2-1.1,0.3-1.4C76.7,38,77.4,38.1,77.7,38.5L77.7,38.5z"/>
			<path class="st0" d="M54.5,1C25,1,1,25,1,54.5S25,108,54.5,108S108,84,108,54.5S84,1,54.5,1z M54.5,88.7
				c-18.8,0-34.2-15.3-34.2-34.2c0-18.8,15.3-34.2,34.2-34.2c18.8,0,34.2,15.3,34.2,34.2C88.7,73.3,73.3,88.7,54.5,88.7z"/>
		</g>
	</g>
	<g id="plan_it" class="st1">
		<g class="st2">
			<path class="st3" d="M49.5,59.1c-0.3-0.4-0.8-0.6-1.3-0.7l-0.1,2.1l2-0.1C50,59.9,49.8,59.5,49.5,59.1z"/>
			<path class="st3" d="M54,56.2c-0.2,0.2-0.5,0.4-0.9,0.4c-0.3,0-0.6-0.1-0.9-0.4c-0.5-0.5-0.5-1.2,0-1.7l21.2-21.2l-2.7-2.7
				L48.5,52.9L48.3,56c1.2,0.1,2.2,0.6,3,1.4c0.7,0.8,1.1,1.7,1.2,2.8l3.2-0.2L78,37.7L75.3,35L54,56.2z"/>
			<polygon class="st3" points="41.6,30.7 32.6,39.7 41.6,39.7 			"/>
			<path class="st3" d="M46.8,63.1L46.8,63.1c-0.4,0-0.7-0.1-0.9-0.4l0,0l0,0c-0.2-0.2-0.4-0.6-0.4-0.9l0.6-9.4
				c0-0.3,0.1-0.6,0.4-0.8L69,29H44v13.2H30.8v34.2h39.3V49L57,62.1c-0.2,0.2-0.5,0.3-0.8,0.4l-4.8,0.3c-0.1,0-0.1,0-0.2,0.1
				L46.8,63.1z"/>
			<rect x="75.6" y="25.9" transform="matrix(0.7071 -0.7071 0.7071 0.7071 0.8434 63.908)" class="st3" width="4" height="10.1"/>
			<path class="st3" d="M54.5,1C25,1,1,25,1,54.5S25,108,54.5,108S108,84,108,54.5S84,1,54.5,1z M85.1,34L72.6,46.6c0,0,0,0,0,0.1
				v32.2H28.4V41v-0.5l0.4-0.4l0,0L42,26.9l0,0l0.4-0.4h0.5h28.6l3.2-3.2c0.2-0.2,0.5-0.4,0.9-0.4c0.3,0,0.6,0.1,0.9,0.4l8.9,8.9
				c0.2,0.2,0.4,0.5,0.4,0.9C85.5,33.5,85.4,33.8,85.1,34z"/>
			<path class="st4" d="M50.1,60.5C50.1,60.4,50.1,60.4,50.1,60.5l-2,0.1l0,0L50.1,60.5z"/>
			<path class="st4" d="M46.7,63c-0.3,0-0.6-0.1-0.8-0.3l0,0C46.1,63,46.4,63.1,46.7,63C46.8,63,46.8,63,46.7,63l4.5-0.3
				c0.1,0,0.1,0,0.2-0.1L46.7,63C46.8,63,46.7,63,46.7,63z"/>
			<path class="st4" d="M28.4,40.5V41c0-0.3,0.1-0.6,0.4-0.9L28.4,40.5z"/>
			<path class="st4" d="M42.3,26.6L41.9,27c0.2-0.2,0.5-0.4,0.9-0.4H42.3z"/>
			<path class="st4" d="M70.4,28.4c-0.2,0.2-0.3,0.4-0.3,0.6h1.3c0.4,0,0.7-0.2,0.9-0.4l-0.1-0.1C71.7,27.9,70.9,27.9,70.4,28.4z"/>
			<path class="st4" d="M41.9,26.9L41.9,26.9L41.9,26.9z"/>
			<path class="st4" d="M28.8,40.1L28.8,40.1L28.8,40.1z"/>
			<path class="st4" d="M29.6,42.2h1.2v-0.7l1.7-1.7h-2.9c-0.3,0-0.6,0.1-0.9,0.4l0,0c-0.2,0.2-0.4,0.5-0.4,0.9
				C28.4,41.6,29,42.2,29.6,42.2z"/>
		</g>
	</g>
	<g class="st1">
		<polygon class="st5" points="68.6,86.2 75.2,86.2 69,73.2 64.9,73.2 		"/>
		<path class="st5" d="M60.9,28.8H48.2H31.2v36.1h46.6V28.8H60.9z M60.1,40.8l3-3c0.4-0.4,1-0.4,1.4,0c0.4,0.4,0.4,1,0,1.4l-3,3
			c-0.2,0.2-0.4,0.3-0.7,0.3c-0.3,0-0.5-0.1-0.7-0.3C59.8,41.8,59.8,41.2,60.1,40.8z M53.5,34.7c0-0.5,0.4-1,1-1c0.5,0,1,0.4,1,1
			v4.2c0,0.5-0.4,1-1,1c-0.5,0-1-0.4-1-1V34.7z M44.6,37.9c0.4-0.4,1-0.4,1.4,0l3,3c0.4,0.4,0.4,1,0,1.4c-0.2,0.2-0.4,0.3-0.7,0.3
			c-0.3,0-0.5-0.1-0.7-0.3l-3-3C44.2,38.9,44.2,38.3,44.6,37.9z M40.5,47.8c0-0.5,0.4-1,1-1h4.2c0.5,0,1,0.4,1,1c0,0.5-0.4,1-1,1
			h-4.2C40.9,48.8,40.5,48.4,40.5,47.8z M48.9,54.8l-3,3c-0.2,0.2-0.4,0.3-0.7,0.3c-0.3,0-0.5-0.1-0.7-0.3c-0.4-0.4-0.4-1,0-1.4l3-3
			c0.4-0.4,1-0.4,1.4,0C49.3,53.8,49.3,54.5,48.9,54.8z M55.5,60.9c0,0.5-0.4,1-1,1c-0.5,0-1-0.4-1-1v-4.2c0-0.5,0.4-1,1-1
			c0.5,0,1,0.4,1,1V60.9z M54.5,54.1c-3.5,0-6.3-2.8-6.3-6.3c0-3.5,2.8-6.3,6.3-6.3s6.3,2.8,6.3,6.3C60.7,51.3,57.9,54.1,54.5,54.1z
			 M64.5,57.8c-0.2,0.2-0.4,0.3-0.7,0.3c-0.3,0-0.5-0.1-0.7-0.3l-3-3c-0.4-0.4-0.4-1,0-1.4c0.4-0.4,1-0.4,1.4,0l3,3
			C64.9,56.8,64.9,57.4,64.5,57.8z M67.6,48.8h-4.2c-0.5,0-1-0.4-1-1c0-0.5,0.4-1,1-1h4.2c0.5,0,1,0.4,1,1
			C68.6,48.4,68.2,48.8,67.6,48.8z"/>
		<polygon class="st5" points="40.4,86 44.2,73 40.1,73 33.9,86 		"/>
		<path class="st5" d="M54.5,0.7C24.8,0.7,0.7,24.8,0.7,54.5s24.1,53.8,53.8,53.8c29.7,0,53.8-24.1,53.8-53.8S84.2,0.7,54.5,0.7z
			 M88.1,72c0,0.5-0.4,1-1,1h-16l6.6,13.8c0.1,0.3,0.1,0.7-0.1,1c-0.2,0.3-0.5,0.5-0.8,0.5h-9c-0.4,0-0.8-0.3-1-0.7L62.8,73H46.2
			l-4.1,14.2c-0.1,0.4-0.5,0.7-1,0.7h-8.9c-0.3,0-0.7-0.2-0.8-0.5c-0.2-0.3-0.2-0.6-0.1-1L37.9,73h-16c-0.5,0-1-0.4-1-1v-6.2
			c0-0.5,0.4-1,1-1h7.4V27.8c0-0.5,0.4-1,1-1h16.9v-5.1c0-0.5,0.4-1,1-1h12.8c0.5,0,1,0.4,1,1v5.1h16.9c0.5,0,1,0.4,1,1v37.1h7.3
			c0.5,0,1,0.4,1,1V72z"/>
		<polygon class="st5" points="22.8,66.8 22.8,71 39.5,71 45.5,71 86.2,71 86.2,66.8 78.8,66.8 30.2,66.8 		"/>
		<rect x="49.1" y="22.6" class="st5" width="10.8" height="4.1"/>
		<path class="st5" d="M54.5,43.5c-2.4,0-4.3,1.9-4.3,4.3c0,2.4,1.9,4.3,4.3,4.3s4.3-1.9,4.3-4.3C58.8,45.5,56.8,43.5,54.5,43.5z"/>
	</g>
	<g id="communication_workshop" class="st1">
		<g class="st2">
			<path class="st6" d="M64.3,51.7v5c0,0,0.1,0,0.1,0.1l9.6,7.6v-6.6c0-0.7,0.5-1.2,1.2-1.2h4.7c0.7,0,1.2-0.5,1.2-1.2V34
				c0-0.7-0.5-1.2-1.2-1.2H48.3c-0.7,0-1.2,0.5-1.2,1.2v14h13.6C62.7,48,64.3,49.6,64.3,51.7z"/>
			<path class="st6" d="M60.7,50.4H29.1c-0.7,0-1.2,0.5-1.2,1.2v21.2c0,0.7,0.5,1.2,1.2,1.2h4.7c0.7,0,1.2,0.5,1.2,1.2V82l9.6-7.6
				c0.2-0.2,0.5-0.3,0.8-0.3h15.4c0.7,0,1.2-0.5,1.2-1.2V51.7C61.9,51,61.3,50.4,60.7,50.4z"/>
			<path class="st6" d="M54.5,1C25,1,1,25,1,54.5S25,108,54.5,108S108,84,108,54.5S84,1,54.5,1z M83.6,55.3c0,2-1.6,3.6-3.6,3.6
				h-3.5v7.9c0,0.5-0.3,0.9-0.7,1.1C75.6,68,75.4,68,75.2,68c-0.3,0-0.5-0.1-0.8-0.3l-10.1-8v13.1c0,2-1.6,3.6-3.6,3.6h-15
				l-11.2,8.9c-0.2,0.2-0.5,0.3-0.8,0.3c-0.2,0-0.4,0-0.5-0.1c-0.4-0.2-0.7-0.6-0.7-1.1v-7.9H29c-2,0-3.6-1.6-3.6-3.6V51.7
				c0-2,1.6-3.6,3.6-3.6h15.6V34c0-2,1.6-3.6,3.6-3.6h31.6c2,0,3.6,1.6,3.6,3.6v21.3H83.6z"/>
		</g>
	</g>
</g>
<g id="Layer_2">
</g>
</svg>
