<?xml version="1.0" encoding="utf-8"?>
<!-- Generator: Adobe Illustrator 24.0.0, SVG Export Plug-In . SVG Version: 6.00 Build 0)  -->
<svg version="1.1" id="Layer_1" xmlns="http://www.w3.org/2000/svg" xmlns:xlink="http://www.w3.org/1999/xlink" x="0px" y="0px"
	 viewBox="0 0 109 109" style="enable-background:new 0 0 109 109;" xml:space="preserve">
<style type="text/css">
	.st0{display:none;}
	.st1{display:inline;}
	.st2{fill:#CF5FA9;}
	.st3{fill:#554B54;}
	.st4{fill:#42DBAC;}
	.st5{fill:#FFFFFF;}
	.st6{fill:#F39B0C;}
	.st7{fill:#D4826E;}
</style>
<g id="present_it" class="st0">
	<g class="st1">
		<polygon class="st2" points="68.5,86 75.1,86 68.9,73.1 64.8,73.1 		"/>
		<path class="st2" d="M60.9,28.9H48.2H31.4v35.9h46.3V28.9H60.9z M60.1,40.9L63,38c0.4-0.4,1-0.4,1.4,0s0.4,1,0,1.4l-2.9,2.9
			c-0.2,0.2-0.4,0.3-0.7,0.3s-0.5-0.1-0.7-0.3C59.7,41.9,59.7,41.3,60.1,40.9z M53.6,34.9c0-0.5,0.4-1,1-1s1,0.4,1,1V39
			c0,0.5-0.4,1-1,1s-1-0.4-1-1V34.9z M44.6,38c0.4-0.4,1-0.4,1.4,0l2.9,2.9c0.4,0.4,0.4,1,0,1.4c-0.2,0.2-0.4,0.3-0.7,0.3
			s-0.5-0.1-0.7-0.3l-2.9-2.9C44.3,39,44.3,38.4,44.6,38z M40.5,47.9c0-0.5,0.4-1,1-1h4.2c0.5,0,1,0.4,1,1c0,0.5-0.4,1-1,1h-4.2
			C41,48.9,40.5,48.4,40.5,47.9z M49,54.8l-3,3c-0.2,0.2-0.4,0.3-0.7,0.3s-0.5-0.1-0.7-0.3c-0.4-0.4-0.4-1,0-1.4l2.9-2.9
			c0.4-0.4,1-0.4,1.4,0C49.4,53.8,49.4,54.5,49,54.8z M55.5,60.9c0,0.5-0.4,1-1,1s-1-0.4-1-1v-4.2c0-0.5,0.4-1,1-1s1,0.4,1,1V60.9z
			 M54.5,54.1c-3.4,0-6.2-2.8-6.2-6.2s2.8-6.2,6.2-6.2s6.2,2.8,6.2,6.2S57.9,54.1,54.5,54.1z M64.4,57.8c-0.2,0.2-0.4,0.3-0.7,0.3
			S63.2,58,63,57.8l-2.9-2.9c-0.4-0.4-0.4-1,0-1.4s1-0.4,1.4,0l2.9,2.9C64.8,56.8,64.8,57.4,64.4,57.8z M67.6,48.9h-4.2
			c-0.5,0-1-0.4-1-1c0-0.5,0.4-1,1-1h4.2c0.5,0,1,0.4,1,1C68.5,48.4,68.1,48.9,67.6,48.9z"/>
		<polygon class="st2" points="40.5,85.8 44.2,72.9 40.2,72.9 34,85.8 		"/>
		<path class="st2" d="M54.5,1C25,1,1,25,1,54.5S25,108,54.5,108S108,84,108,54.5S84,1,54.5,1z M87.9,71.9c0,0.5-0.4,1-1,1H71
			l6.6,13.7c0.1,0.3,0.1,0.7-0.1,0.9C77.3,87.8,77,88,76.7,88h-8.9c-0.4,0-0.8-0.3-0.9-0.7l-4.1-14.4H46.3L42.2,87
			c-0.1,0.4-0.5,0.7-0.9,0.7h-8.9c-0.3,0-0.7-0.2-0.8-0.5c-0.2-0.3-0.2-0.6-0.1-0.9L38,72.9H22c-0.5,0-1-0.4-1-1v-6.1
			c0-0.5,0.4-1,1-1h7.4V27.9c0-0.5,0.4-1,1-1h16.8v-5.1c0-0.5,0.4-1,1-1h12.7c0.5,0,1,0.4,1,1v5.1h16.8c0.5,0,1,0.4,1,1v36.8H87
			c0.5,0,1,0.4,1,1L87.9,71.9L87.9,71.9z"/>
		<polygon class="st2" points="23,66.7 23,70.9 39.5,70.9 45.5,70.9 86,70.9 86,66.7 78.7,66.7 30.4,66.7 		"/>
		<rect x="49.2" y="22.8" class="st2" width="10.7" height="4.1"/>
		<path class="st2" d="M54.5,43.6c-2.4,0-4.3,1.9-4.3,4.3c0,2.4,1.9,4.3,4.3,4.3s4.3-1.9,4.3-4.3C58.7,45.5,56.8,43.6,54.5,43.6z"/>
	</g>
</g>
<g id="communication_workshop" class="st0">
	<g class="st1">
		<path class="st3" d="M64.3,51.7v5c0,0,0.1,0,0.1,0.1l9.6,7.6v-6.6c0-0.7,0.5-1.2,1.2-1.2h4.7c0.7,0,1.2-0.5,1.2-1.2V34
			c0-0.7-0.5-1.2-1.2-1.2H48.3c-0.7,0-1.2,0.5-1.2,1.2v14h13.6C62.7,48,64.3,49.6,64.3,51.7z"/>
		<path class="st3" d="M60.7,50.4H29.1c-0.7,0-1.2,0.5-1.2,1.2v21.2c0,0.7,0.5,1.2,1.2,1.2h4.7c0.7,0,1.2,0.5,1.2,1.2V82l9.6-7.6
			c0.2-0.2,0.5-0.3,0.8-0.3h15.4c0.7,0,1.2-0.5,1.2-1.2V51.7C61.9,51,61.3,50.4,60.7,50.4z"/>
		<path class="st3" d="M54.5,1C25,1,1,25,1,54.5S25,108,54.5,108S108,84,108,54.5S84,1,54.5,1z M83.6,55.3c0,2-1.6,3.6-3.6,3.6h-3.5
			v7.9c0,0.5-0.3,0.9-0.7,1.1C75.6,68,75.4,68,75.2,68c-0.3,0-0.5-0.1-0.8-0.3l-10.1-8v13.1c0,2-1.6,3.6-3.6,3.6h-15l-11.2,8.9
			c-0.2,0.2-0.5,0.3-0.8,0.3c-0.2,0-0.4,0-0.5-0.1c-0.4-0.2-0.7-0.6-0.7-1.1v-7.9H29c-2,0-3.6-1.6-3.6-3.6V51.7c0-2,1.6-3.6,3.6-3.6
			h15.6V34c0-2,1.6-3.6,3.6-3.6h31.6c2,0,3.6,1.6,3.6,3.6v21.3H83.6z"/>
	</g>
</g>
<g id="plan_it">
	<g>
		<path class="st4" d="M49.5,59.1c-0.3-0.4-0.8-0.6-1.3-0.7l-0.1,2.1l2-0.1C50,59.9,49.8,59.5,49.5,59.1z"/>
		<path class="st4" d="M54,56.2c-0.2,0.2-0.5,0.4-0.9,0.4c-0.3,0-0.6-0.1-0.9-0.4c-0.5-0.5-0.5-1.2,0-1.7l21.2-21.2l-2.7-2.7
			L48.5,52.9L48.3,56c1.2,0.1,2.2,0.6,3,1.4c0.7,0.8,1.1,1.7,1.2,2.8l3.2-0.2L78,37.7L75.3,35L54,56.2z"/>
		<polygon class="st4" points="41.6,30.7 32.6,39.7 41.6,39.7 		"/>
		<path class="st4" d="M46.8,63.1L46.8,63.1c-0.4,0-0.7-0.1-0.9-0.4l0,0l0,0c-0.2-0.2-0.4-0.6-0.4-0.9l0.6-9.4
			c0-0.3,0.1-0.6,0.4-0.8L69,29H44v13.2H30.8v34.2h39.3V49L57,62.1c-0.2,0.2-0.5,0.3-0.8,0.4l-4.8,0.3c-0.1,0-0.1,0-0.2,0.1
			L46.8,63.1z"/>
		<rect x="75.6" y="25.9" transform="matrix(0.7071 -0.7071 0.7071 0.7071 0.8434 63.908)" class="st4" width="4" height="10.1"/>
		<path class="st4" d="M54.5,1C25,1,1,25,1,54.5S25,108,54.5,108S108,84,108,54.5S84,1,54.5,1z M85.1,34L72.6,46.6c0,0,0,0,0,0.1
			v32.2H28.4V41v-0.5l0.4-0.4l0,0L42,26.9l0,0l0.4-0.4h0.5h28.6l3.2-3.2c0.2-0.2,0.5-0.4,0.9-0.4c0.3,0,0.6,0.1,0.9,0.4l8.9,8.9
			c0.2,0.2,0.4,0.5,0.4,0.9C85.5,33.5,85.4,33.8,85.1,34z"/>
		<path class="st5" d="M50.1,60.5C50.1,60.4,50.1,60.4,50.1,60.5l-2,0.1l0,0L50.1,60.5z"/>
		<path class="st5" d="M46.7,63c-0.3,0-0.6-0.1-0.8-0.3l0,0C46.1,63,46.4,63.1,46.7,63C46.8,63,46.8,63,46.7,63l4.5-0.3
			c0.1,0,0.1,0,0.2-0.1L46.7,63C46.8,63,46.7,63,46.7,63z"/>
		<path class="st5" d="M28.4,40.5V41c0-0.3,0.1-0.6,0.4-0.9L28.4,40.5z"/>
		<path class="st5" d="M42.3,26.6L41.9,27c0.2-0.2,0.5-0.4,0.9-0.4H42.3z"/>
		<path class="st5" d="M70.4,28.4c-0.2,0.2-0.3,0.4-0.3,0.6h1.3c0.4,0,0.7-0.2,0.9-0.4l-0.1-0.1C71.7,27.9,70.9,27.9,70.4,28.4z"/>
		<path class="st5" d="M41.9,26.9L41.9,26.9L41.9,26.9z"/>
		<path class="st5" d="M28.8,40.1L28.8,40.1L28.8,40.1z"/>
		<path class="st5" d="M29.6,42.2h1.2v-0.7l1.7-1.7h-2.9c-0.3,0-0.6,0.1-0.9,0.4l0,0c-0.2,0.2-0.4,0.5-0.4,0.9
			C28.4,41.6,29,42.2,29.6,42.2z"/>
	</g>
</g>
<g id="practice_it" class="st0">
	<g class="st1">
		<path class="st6" d="M57.3,73.5c-0.7,0-1.3,0.6-1.3,1.3c0,0.7,0.6,1.3,1.3,1.3s1.3-0.6,1.3-1.3S58,73.5,57.3,73.5z"/>
		<path class="st6" d="M57.5,50.1c0.1,0,0.1,0.1,0.2,0.2c0.2,0.1,0.3,0.2,0.5,0.4c0.1,0.1,0.2,0.2,0.3,0.3s0.3,0.3,0.4,0.5
			c0.1,0.1,0.1,0.1,0.2,0.2c1.1-0.8,2.2-1.8,3.2-2.8c2-2,3.2-4.2,3.9-5.8c-1.6,0.7-3.9,1.9-5.8,3.9c-1,1-1.9,2-2.7,3.1l0,0
			C57.5,50,57.5,50.1,57.5,50.1z"/>
		<path class="st6" d="M55.8,49c0.1-1,0.2-2.1,0.2-3.2c0-2.8-0.7-5.2-1.4-6.9c-0.6,1.6-1.4,4.1-1.4,6.9c0,1.3,0.1,2.5,0.2,3.7
			c0.1,0,0.3,0,0.4-0.1c0.1,0,0.3,0,0.4-0.1c0.2,0,0.4,0,0.6,0c0.1,0,0.3,0,0.4,0c0.1,0,0.1,0,0.2,0C55.6,49.2,55.7,49.1,55.8,49z"
			/>
		<path class="st6" d="M55.6,51.5L55.6,51.5c-0.3-0.1-0.6-0.1-0.9-0.1c-0.1,0-0.2,0-0.3,0c-0.2,0-0.3,0-0.5,0.1
			c-0.1,0-0.2,0-0.2,0.1c-0.2,0.1-0.5,0.2-0.7,0.3c-1,0.6-1.6,1.6-1.6,2.7c0,1.7,1.4,3.1,3.1,3.1c1.7,0,3.1-1.4,3.1-3.1
			c0-0.3,0-0.6-0.1-0.9l0,0c-0.2-0.8-0.8-1.4-1.5-1.8C56,51.6,55.8,51.5,55.6,51.5L55.6,51.5L55.6,51.5z"/>
		<path class="st6" d="M54.5,22.4c-17.7,0-32.1,14.4-32.1,32.1s14.4,32.1,32.1,32.1s32.1-14.4,32.1-32.1S72.2,22.4,54.5,22.4z
			 M28,49.5c0.6,0.1,0.9,0.6,0.9,1.2c-0.1,0.5-0.5,0.9-1,0.9c-0.1,0-0.1,0-0.1,0c-0.6-0.1-0.9-0.6-0.9-1.2S27.4,49.4,28,49.5z
			 M28,59.5h-0.1c-0.5,0-0.9-0.4-1-0.9c-0.1-0.6,0.3-1.1,0.9-1.2c0.5-0.1,1.1,0.3,1.2,0.9C28.9,58.9,28.6,59.4,28,59.5z M29.3,42.3
			c0.2-0.5,0.8-0.7,1.4-0.5c0.5,0.2,0.7,0.9,0.5,1.4c-0.2,0.4-0.5,0.6-0.9,0.6c-0.1,0-0.3,0-0.4-0.1C29.2,43.4,29,42.8,29.3,42.3z
			 M30.7,67.1c-0.1,0.1-0.3,0.1-0.4,0.1c-0.4,0-0.7-0.2-0.9-0.6c-0.2-0.5,0-1.1,0.5-1.4c0.5-0.2,1.1,0,1.4,0.5
			C31.4,66.3,31.2,66.9,30.7,67.1z M63.4,28.9c0.2-0.5,0.8-0.8,1.3-0.6l0,0c0.5,0.2,0.8,0.8,0.6,1.3c-0.2,0.4-0.5,0.7-0.9,0.7
			c-0.1,0-0.2,0-0.4-0.1C63.5,30,63.2,29.4,63.4,28.9z M56.6,26.5c0.6,0,1,0.5,0.9,1.1c0,0.5-0.5,1-1,1c0,0,0,0-0.1,0
			c-0.6,0-1-0.5-0.9-1.1C55.5,26.8,56,26.4,56.6,26.5z M48.2,27.1c0.5-0.1,1.1,0.2,1.2,0.8c0.1,0.5-0.2,1.1-0.8,1.2
			c-0.1,0-0.2,0-0.2,0c-0.5,0-0.9-0.3-1-0.8C47.4,27.8,47.7,27.2,48.2,27.1z M40.5,30.2c0.5-0.3,1.1-0.1,1.4,0.4
			c0.3,0.5,0.1,1.1-0.4,1.4c-0.2,0.1-0.3,0.1-0.5,0.1c-0.4,0-0.7-0.2-0.9-0.5C39.8,31.1,40,30.5,40.5,30.2z M34,35.4
			c0.4-0.4,1-0.4,1.4-0.1c0.4,0.4,0.4,1,0.1,1.4C35.3,36.9,35,37,34.8,37s-0.5-0.1-0.7-0.3C33.6,36.5,33.6,35.8,34,35.4z M35.5,73.6
			c-0.2,0.2-0.4,0.3-0.7,0.3s-0.5-0.1-0.7-0.3c-0.4-0.4-0.4-1.1,0.1-1.4c0.4-0.4,1.1-0.4,1.4,0S35.9,73.2,35.5,73.6z M42,78.4
			c-0.2,0.3-0.5,0.5-0.9,0.5c-0.2,0-0.3,0-0.5-0.1c-0.5-0.3-0.7-0.9-0.4-1.4s0.9-0.7,1.4-0.4C42.1,77.3,42.2,77.9,42,78.4z M49.6,81
			c-0.1,0.5-0.5,0.8-1,0.8c-0.1,0-0.1,0-0.2,0c-0.5-0.1-0.9-0.7-0.8-1.2c0.1-0.5,0.7-0.9,1.2-0.8l0,0C49.4,79.9,49.7,80.5,49.6,81z
			 M56.7,82.4C56.7,82.4,56.6,82.4,56.7,82.4c-0.6,0-1.1-0.4-1.1-0.9c0-0.6,0.4-1.1,0.9-1.1c0.6,0,1,0.4,1.1,0.9
			C57.7,81.9,57.3,82.4,56.7,82.4z M57.3,78.3c-1.4,0-2.6-0.9-3.1-2.1C42.4,76,33,66.3,33,54.5c0-6.7,3.1-13,8.4-17.1h-2.3
			c-0.6,0-1-0.5-1-1c0-0.6,0.5-1,1-1H44c0.6,0,1,0.5,1,1v4.9c0,0.6-0.5,1-1,1c-0.6,0-1-0.5-1-1v-2.5c-4.9,3.7-7.9,9.5-7.9,15.7
			c0,10.6,8.5,19.3,19.1,19.6c0.4-1.5,1.7-2.6,3.3-2.6c1.9,0,3.4,1.5,3.4,3.4S59.1,78.3,57.3,78.3z M64.8,80.5L64.8,80.5
			c-0.1,0-0.2,0.1-0.4,0.1c-0.4,0-0.8-0.2-0.9-0.6c-0.2-0.5,0-1.1,0.6-1.3c0.5-0.2,1.1,0,1.3,0.6C65.6,79.7,65.4,80.3,64.8,80.5z
			 M68.8,41.5c-0.1,0.2-1.4,4.9-5.2,8.7c-1.3,1.3-2.7,2.5-4,3.4c0,0.3,0.1,0.5,0.1,0.8c0,2.8-2.3,5.2-5.2,5.2
			c-2.8,0-5.2-2.3-5.2-5.2c0-1.6,0.8-3.1,2.1-4.1c-0.2-1.4-0.3-3-0.3-4.6c0-5.4,2.4-9.7,2.5-9.8c0.2-0.3,0.5-0.5,0.9-0.5
			s0.7,0.2,0.9,0.5c0.1,0.2,2.5,4.5,2.5,9.8c0,0.2,0,0.5,0,0.7c0.3-0.3,0.6-0.6,0.9-1c3.8-3.8,8.5-5.1,8.7-5.2c0.4-0.1,0.7,0,1,0.3
			C68.8,40.8,68.9,41.2,68.8,41.5z M70.5,32.6c0.3-0.4,1-0.5,1.4-0.2c0.4,0.4,0.5,1,0.2,1.4c-0.2,0.3-0.5,0.4-0.8,0.4
			c-0.2,0-0.4-0.1-0.6-0.2C70.3,33.7,70.2,33.1,70.5,32.6z M72.1,76.3c-0.2,0.1-0.4,0.2-0.6,0.2c-0.3,0-0.6-0.1-0.8-0.4
			c-0.4-0.4-0.3-1.1,0.2-1.4c0.4-0.4,1.1-0.3,1.4,0.2C72.6,75.4,72.5,76,72.1,76.3z M81.4,62.7c-0.1,0.4-0.5,0.7-1,0.7
			c-0.1,0-0.2,0-0.3,0c-0.5-0.2-0.8-0.7-0.7-1.3c0.2-0.5,0.7-0.8,1.3-0.7C81.2,61.6,81.5,62.2,81.4,62.7z M82.6,54.3
			C82.6,54.3,82.6,54.4,82.6,54.3C82.6,54.4,82.6,54.4,82.6,54.3c0,0.7-0.5,1.1-1,1.1c-0.6,0-1-0.5-1-1l0,0c0,0,0,0,0-0.1
			c0-0.6,0.4-1,1-1C82.1,53.3,82.6,53.8,82.6,54.3z M80.1,45.4c0.5-0.2,1.1,0.1,1.3,0.7c0.2,0.5-0.1,1.1-0.7,1.3c-0.1,0-0.2,0-0.3,0
			c-0.4,0-0.8-0.3-1-0.7C79.2,46.1,79.5,45.6,80.1,45.4z M77.7,70.2c-0.2,0.3-0.5,0.4-0.8,0.4c-0.2,0-0.4-0.1-0.6-0.2
			c-0.5-0.3-0.6-0.9-0.3-1.4c0.3-0.5,0.9-0.6,1.4-0.3C77.9,69.1,78.1,69.8,77.7,70.2z M77.7,38.5c0.3,0.5,0.2,1.1-0.3,1.4
			c-0.2,0.1-0.4,0.2-0.6,0.2c-0.3,0-0.6-0.1-0.8-0.4c-0.3-0.5-0.2-1.1,0.3-1.4C76.7,38,77.4,38.1,77.7,38.5L77.7,38.5z"/>
		<path class="st6" d="M54.5,1C25,1,1,25,1,54.5S25,108,54.5,108S108,84,108,54.5S84,1,54.5,1z M54.5,88.7
			c-18.8,0-34.2-15.3-34.2-34.2c0-18.8,15.3-34.2,34.2-34.2c18.8,0,34.2,15.3,34.2,34.2C88.7,73.3,73.3,88.7,54.5,88.7z"/>
		<path class="st5" d="M57.5,50.1L57.5,50.1c0-0.1,0.1-0.1,0.1-0.2l0,0l0,0C57.5,50,57.5,50.1,57.5,50.1z"/>
		<path class="st5" d="M54.3,49.3c0.2,0,0.4,0,0.6,0C54.7,49.3,54.5,49.3,54.3,49.3z"/>
		<path class="st5" d="M55.6,51.5L55.6,51.5L55.6,51.5z"/>
		<path class="st5" d="M53.8,51.4c0.1,0,0.2,0,0.2-0.1C53.9,51.4,53.9,51.4,53.8,51.4z"/>
		<path class="st5" d="M54.6,51.3L54.6,51.3c0,0,0.1,0,0.2,0C54.7,51.3,54.7,51.3,54.6,51.3z"/>
		<path class="st5" d="M58.1,50.7c0.1,0.1,0.2,0.2,0.3,0.3C58.3,50.9,58.2,50.8,58.1,50.7z"/>
		<path class="st5" d="M57.5,50.2c0.1,0,0.1,0.1,0.2,0.1C57.6,50.2,57.5,50.2,57.5,50.2C57.5,50.1,57.5,50.2,57.5,50.2z"/>
		<path class="st5" d="M55.3,49.3c-0.1,0-0.3,0-0.4,0C55,49.3,55.2,49.3,55.3,49.3z"/>
		<path class="st5" d="M53.1,51.7c0.2-0.1,0.4-0.2,0.7-0.3C53.5,51.5,53.3,51.6,53.1,51.7z"/>
		<path class="st5" d="M57.7,50.3c0.2,0.1,0.3,0.2,0.5,0.4C58,50.5,57.8,50.4,57.7,50.3z"/>
		<path class="st5" d="M58.8,51.5c-0.1-0.2-0.2-0.3-0.4-0.5C58.6,51.1,58.7,51.3,58.8,51.5z"/>
		<path class="st5" d="M54,51.4c0.2,0,0.3-0.1,0.5-0.1C54.3,51.3,54.2,51.4,54,51.4z"/>
		<path class="st5" d="M54.7,51.3c0.3,0,0.6,0,0.9,0.1C55.3,51.4,55,51.4,54.7,51.3z"/>
		<path class="st5" d="M55.6,51.5L55.6,51.5L55.6,51.5z"/>
		<path class="st5" d="M53.8,49.4c0.1,0,0.3,0,0.4-0.1C54.1,49.3,54,49.3,53.8,49.4z"/>
	</g>
</g>
<g id="polish_it" class="st0">
	<g class="st1">
		<polygon class="st7" points="68.4,29.7 55.7,29.7 65.3,46 		"/>
		<polygon class="st7" points="53.3,29.7 40.6,29.7 43.8,46 		"/>
		<polygon class="st7" points="64.2,47.5 54.5,31.1 44.9,47.5 		"/>
		<polygon class="st7" points="39,30.9 26.2,47.7 42.4,47.7 		"/>
		<polygon class="st7" points="56.6,84 82.8,49.5 66.3,49.5 		"/>
		<polygon class="st7" points="26.2,49.5 52.4,84 42.8,49.5 		"/>
		<polygon class="st7" points="54.5,85 64.5,49.5 44.6,49.5 		"/>
		<polygon class="st7" points="66.7,47.7 82.8,47.7 70,30.9 		"/>
		<path class="st7" d="M54.5,1C25,1,1,25,1,54.5S25,108,54.5,108S108,84,108,54.5S84,1,54.5,1z M85.2,49.1l-30,39.6c0,0,0,0-0.1,0.1
			L55,88.9l0,0l0,0c0,0-0.1,0-0.1,0.1h-0.1c-0.1,0-0.2,0-0.2,0l0,0l0,0l0,0l0,0l0,0l0,0c-0.1,0-0.2,0-0.2,0h-0.1c0,0-0.1,0-0.1-0.1
			l0,0l0,0l-0.1-0.1c0,0,0,0-0.1-0.1L24,49.1c0,0,0,0,0-0.1c-0.1-0.1-0.2-0.3-0.2-0.5s0.1-0.3,0.2-0.5c0,0,0,0,0-0.1l15-19.8
			c0,0,0,0,0.1-0.1s0.1-0.1,0.2-0.2c0,0,0.1,0,0.1-0.1c0,0,0.1,0,0.1-0.1h0.1c0,0,0,0,0.1,0h30c0,0,0,0,0.1,0h0.1c0,0,0.1,0,0.1,0.1
			c0,0,0.1,0,0.1,0.1c0.1,0,0.1,0.1,0.2,0.2c0,0,0,0,0.1,0.1l15,19.8c0,0,0,0,0,0.1c0.1,0.1,0.2,0.3,0.2,0.5S85.3,48.9,85.2,49.1
			L85.2,49.1z"/>
		<path class="st5" d="M54.9,88.9C54.9,88.9,54.8,88.9,54.9,88.9C54.9,89,54.9,89,54.9,88.9z"/>
		<path class="st5" d="M39.1,28c0,0,0.1,0,0.1-0.1C39.1,28,39.1,28,39.1,28z"/>
		<path class="st5" d="M54.2,89C54.2,89,54.1,89,54.2,89C54.1,89,54.1,89,54.2,89z"/>
		<path class="st5" d="M69.8,28c0,0,0.1,0,0.1,0.1C69.9,28,69.9,28,69.8,28z"/>
		<polygon class="st5" points="54.5,89.1 54.5,89.1 54.5,89.1 		"/>
		<path class="st5" d="M39.3,27.9c0,0-0.1,0-0.1,0.1C39.3,28,39.3,27.9,39.3,27.9C39.4,27.9,39.4,27.9,39.3,27.9z"/>
		<path class="st5" d="M38.9,28.2c0.1-0.1,0.1-0.1,0.2-0.2C39,28.1,38.9,28.1,38.9,28.2z"/>
		<path class="st5" d="M43.2,47.6c0.3-0.1,0.5,0,0.7,0.1h0.2L43.8,46l-1,1.7h0.1C43,47.7,43.1,47.6,43.2,47.6z"/>
		<path class="st5" d="M69.9,28c0.1,0,0.1,0.1,0.2,0.2C70.1,28.1,70,28.1,69.9,28z"/>
		<path class="st5" d="M69.7,27.9C69.6,27.9,69.6,27.9,69.7,27.9c0,0,0.1,0,0.1,0.1C69.8,28,69.7,27.9,69.7,27.9z"/>
		<path class="st5" d="M65.9,47.6c0.1,0,0.2,0.1,0.3,0.1h0.1l-1-1.7L65,47.7h0.2C65.4,47.6,65.6,47.5,65.9,47.6z"/>
		<path class="st5" d="M23.6,48.6c0-0.2,0.1-0.3,0.2-0.5C23.7,48.3,23.6,48.4,23.6,48.6z"/>
		<path class="st5" d="M23.8,49.1c-0.1-0.1-0.2-0.3-0.2-0.5C23.6,48.8,23.7,48.9,23.8,49.1z"/>
		<path class="st5" d="M85.2,49.1c0.1-0.1,0.2-0.3,0.2-0.5C85.4,48.8,85.3,48.9,85.2,49.1z"/>
		<polygon class="st5" points="44.6,49.3 44.6,49.5 64.5,49.5 64.5,49.3 		"/>
		<path class="st5" d="M85.2,48.1c0.1,0.1,0.2,0.3,0.2,0.5C85.4,48.4,85.3,48.3,85.2,48.1z"/>
		<path class="st5" d="M42.6,48.4c0-0.1,0-0.3,0.1-0.4l0,0l0.1-0.3h-0.4l0.2,0.9l0,0v-0.1C42.6,48.4,42.6,48.4,42.6,48.4z"/>
		<path class="st5" d="M44.3,48.2L44.3,48.2l-0.1-0.5H44C44.1,47.8,44.2,48,44.3,48.2z"/>
		<path class="st5" d="M42.7,48c0.1-0.1,0.1-0.2,0.2-0.3h-0.1L42.7,48L42.7,48z"/>
		<path class="st5" d="M42.6,48.5L42.6,48.5C42.6,48.4,42.6,48.4,42.6,48.5z"/>
		<path class="st5" d="M66.4,48L66.4,48c0.1,0.1,0.1,0.3,0.1,0.4v0.1v0.1l0,0l0.2-0.9h-0.4L66.4,48z"/>
		<path class="st5" d="M64.8,48.2c0.1-0.2,0.2-0.3,0.3-0.5h-0.2L64.8,48.2L64.8,48.2z"/>
		<path class="st5" d="M66.5,48.4L66.5,48.4C66.5,48.4,66.5,48.4,66.5,48.4z"/>
		<path class="st5" d="M66.4,48L66.4,48l-0.2-0.3h-0.1C66.3,47.8,66.4,47.9,66.4,48z"/>
		<path class="st5" d="M54.5,89.1c0.1,0,0.2,0,0.2,0h0.1C54.7,89,54.6,89.1,54.5,89.1L54.5,89.1z"/>
		<path class="st5" d="M55,88.9L55,88.9C55.1,88.8,55.1,88.8,55,88.9C55.1,88.9,55,88.9,55,88.9z"/>
		<path class="st5" d="M54,88.9L54,88.9L54,88.9z"/>
		<path class="st5" d="M54.9,88.9C55,88.9,55,88.9,54.9,88.9C55,88.9,55,88.9,54.9,88.9C55,88.9,55,88.9,54.9,88.9z"/>
		<polygon class="st5" points="54.5,89.1 54.5,89.1 54.5,89.1 		"/>
		<path class="st5" d="M55.1,88.8L55.1,88.8c0.1-0.1,0.2-0.2,0.2-0.4C55.3,88.6,55.2,88.7,55.1,88.8z"/>
		<path class="st5" d="M54.5,89.1L54.5,89.1L54.5,89.1z"/>
		<path class="st5" d="M54.5,89.1c0.1,0,0.2,0,0.3-0.1c0,0,0.1,0,0.1-0.1l0,0C54.8,89,54.7,89.1,54.5,89.1z"/>
		<path class="st5" d="M43.2,47.6c-0.1,0-0.2,0.1-0.3,0.1h1C43.7,47.6,43.5,47.5,43.2,47.6z"/>
		<path class="st5" d="M43.4,49.3L43.4,49.3L43.4,49.3c-0.2,0-0.4-0.1-0.5-0.2L42.8,49c-0.1-0.1-0.1-0.1-0.2-0.2c0-0.1,0-0.1,0-0.2
			c0,0,0,0,0-0.1l0,0l0.2,0.8h1.8v-0.2h-1.2V49.3z"/>
		<path class="st5" d="M42.7,48.8c0,0.1,0.1,0.1,0.2,0.2C42.8,48.9,42.7,48.8,42.7,48.8C42.6,48.7,42.6,48.8,42.7,48.8z"/>
		<path class="st5" d="M44.3,48.2c0.1,0.5-0.2,0.9-0.7,1c-0.1,0-0.1,0-0.2,0h1.1L44.3,48.2L44.3,48.2z"/>
		<path class="st5" d="M43.4,49.3c-0.2,0-0.3-0.1-0.5-0.2C43.1,49.2,43.2,49.3,43.4,49.3z"/>
		<polygon class="st5" points="43.4,49.3 43.4,49.3 43.4,49.3 		"/>
		<path class="st5" d="M42.6,48.4c0-0.1,0-0.3,0.1-0.4C42.6,48.1,42.6,48.2,42.6,48.4z"/>
		<path class="st5" d="M42.6,48.5L42.6,48.5c0,0.1,0,0.1,0,0.2C42.6,48.6,42.6,48.6,42.6,48.5z"/>
		<path class="st5" d="M42.9,49.1L42.9,49.1C42.9,49,42.9,49.1,42.9,49.1z"/>
		<polygon class="st5" points="54.5,89.1 54.5,89.1 54.5,89.1 		"/>
		<path class="st5" d="M54.2,89L54.2,89c0.2,0.1,0.2,0.1,0.3,0.1l0,0C54.4,89.1,54.3,89,54.2,89z"/>
		<path class="st5" d="M54,88.9L54,88.9L54,88.9L54,88.9z"/>
		<path class="st5" d="M55,88.9L55,88.9L55,88.9z"/>
		<path class="st5" d="M53.9,88.8L53.9,88.8C54,88.9,53.9,88.9,53.9,88.8L53.9,88.8z"/>
		<path class="st5" d="M54,88.9L54,88.9C54.1,88.9,54.1,89,54,88.9c0.2,0.1,0.3,0.2,0.4,0.2C54.3,89.1,54.2,89,54,88.9z"/>
		<path class="st5" d="M53.7,88.5c0,0.1,0.1,0.2,0.2,0.3c0,0,0,0,0.1,0.1C53.8,88.7,53.7,88.6,53.7,88.5z"/>
		<path class="st5" d="M54.5,89.1L54.5,89.1L54.5,89.1z"/>
		<path class="st5" d="M65.9,47.6c-0.3-0.1-0.5,0-0.7,0.1h1C66.1,47.7,66,47.6,65.9,47.6z"/>
		<path class="st5" d="M66.4,48.8c0,0.1-0.1,0.1-0.2,0.2l-0.1,0.1c-0.1,0.1-0.3,0.2-0.5,0.2l0,0l0,0h-1.2l-0.1,0.2h1.8L66.4,48.8
			L66.4,48.8C66.3,48.7,66.3,48.7,66.4,48.8C66.5,48.7,66.5,48.8,66.4,48.8z"/>
		<path class="st5" d="M64.8,48.2L64.8,48.2l-0.3,1h1.2c-0.1,0-0.1,0-0.2,0C65,49.2,64.7,48.7,64.8,48.2z"/>
		<path class="st5" d="M66.4,48.8c0-0.1,0-0.1,0-0.2c0,0.1-0.1,0.2-0.2,0.3C66.3,49,66.4,48.9,66.4,48.8z"/>
		<path class="st5" d="M66.2,49.1c-0.1,0.1-0.3,0.2-0.5,0.2C65.9,49.3,66,49.2,66.2,49.1z"/>
		<path class="st5" d="M66.4,48c0.1,0.1,0.1,0.3,0.1,0.4C66.5,48.2,66.5,48.1,66.4,48z"/>
		<polygon class="st5" points="65.7,49.3 65.7,49.3 65.7,49.3 		"/>
		<path class="st5" d="M66.5,48.7C66.5,48.6,66.5,48.6,66.5,48.7c0-0.1,0-0.1,0-0.2C66.5,48.6,66.5,48.6,66.5,48.7z"/>
		<path class="st5" d="M66.3,49L66.3,49C66.2,49.1,66.2,49,66.3,49z"/>
		<path class="st5" d="M54.5,89.1L54.5,89.1L54.5,89.1z"/>
		<path class="st5" d="M54.5,89.1L54.5,89.1L54.5,89.1z"/>
		<path class="st5" d="M55,88.9L55,88.9L55,88.9C55.1,88.9,55.1,88.8,55,88.9C55,88.9,55,88.9,55,88.9z"/>
		<path class="st5" d="M53.9,88.8C53.9,88.9,54,88.9,53.9,88.8C54,88.9,54,88.9,53.9,88.8C54,88.9,54,88.9,53.9,88.8
			C54,88.9,54,88.9,53.9,88.8z"/>
	</g>
</g>
</svg>
