<?xml version="1.0" encoding="utf-8"?>
<!-- Generator: Adobe Illustrator 27.7.0, SVG Export Plug-In . SVG Version: 6.00 Build 0)  -->
<svg version="1.1" id="Ñëîé_1" xmlns="http://www.w3.org/2000/svg" xmlns:xlink="http://www.w3.org/1999/xlink" x="0px" y="0px"
	 viewBox="0 0 3000 2000" style="enable-background:new 0 0 3000 2000;" xml:space="preserve">
<style type="text/css">
	.st0{fill:#FFFFFF;}
	.st1{fill:#97C4D2;}
	.st2{fill:#CEE6ED;}
	.st3{fill:#07356A;}
	.st4{fill:#8BC2D1;}
	.st5{fill:#DCEFF4;}
</style>
<g>
	<rect x="4.62" y="1.38" class="st0" width="2995.38" height="1998.62"/>
	<g>
		<path class="st1" d="M2998.93,1118.83c-2.44-2.88-4.77-6.63-9.64-5.68c-8.49,1.49-16.97,1.02-25.46,0.23
			c-2.08,1.73-4.13,3.09-6.12,3.96c-3.75-3.48-8.29-5.42-13.78-5.57c-0.22-0.4-0.44-0.81-0.66-1.25c-3.6-7.38-10.1-7.42-16.62-7.94
			c-51.17-1.54-102.28-1.34-152.97,7.38c-16.3,1.34-35.03-4.26-42.51,19.08c-1.98,6.2-11.46,8.92-18.93,2.77
			c-3.48-2.86-6.45-7.04-12.01-5.06c-3.41,0.65-6.76,2.02-8.56,4.72c-14.46,21.73-34.95,23.71-57.93,18.27
			c-4.51-1.07-9.15-1.52-13.8-0.58c-24.55-7.79-47.86,2.06-71.65,5.01c-7.95,0.98-15.81,0.74-23.65-0.79
			c-4.74-1.07-9.56-1.24-14.39-1.39c-1.9-0.05-3.78-0.08-5.68-0.08c-7.07-0.08-14.01,0.47-20.36,4.08c-1.41,0.66-2.82,1.2-4.21,1.85
			c-2.32,0.47-4.66,0.33-6.93,0.04c-15.94-5.22-31.15-4.07-45.8,4.85c-12.39,7.56-25.9,8.66-40.29,7.23
			c-20.43-2.04-41.02-3.09-61.37,1.54c-6.29,1.43-13.69,1.33-14.5,10.41c0.21,1.37,0.53,2.67,0.93,3.93
			c-6.03,1.65-12.1,3.01-18.49,2.54c-6.06-0.45-11.98,0.43-17.55,2.83c-6.97,2.99-14.01,3.18-21.46,2.25
			c-10.53-1.31-20.82-0.71-31.46,1.91c-13.42,3.31-27.07,6.9-41.21,6.35c-4.21,2.79-8.4,2.31-12.59-0.07l-0.21,0.35
			c-7.93,0.89-15.89,1.58-23.78,2.73c-7.88,1.15-16.06,1.72-23.46,4.36c-19.63,7-39.7,10.13-60.43,9.89
			c-1.98-0.03-4.38-0.51-5.89,0.39c-12.42,7.42-25.07,5.27-38.34,2.65c-7.6-1.5-15.87,0.42-23.83,0.83
			c-4.63,0.23-9.49,1.52-13.86,0.57c-13.39-2.91-26.19-0.49-39.36,1.76c-13.27,2.26-25.65,6.91-38.29,10.94
			c-5.76,1.84-11.3,4.14-17.36,1.43c-17.8-9.7-37.13-16.98-56.81-18.35c-27.14-1.9-53.79-4.79-80.3-11
			c-16.62-3.9-32.02,0.47-43.88,13.91c-0.29,2.22-0.25,4.39,0.14,6.6c1.44,0.97,2.85,1.95,4.19,2.96
			c-2.49,7.56-9.53,10.19-16.26,13.14c-2.39,0.11-4.78,0.22-7.18,0.33c-7.53,10.26-17.37,5.27-26.33,3.5
			c-7.53-1.48-14.76-4.48-22.46-1.16c-9.57-0.1-18.8,1.73-26.11,8.09c-8.51,7.4-17.86,8.2-28,5.47
			c-11.45-3.08-22.62-1.25-33.16,2.86c-8.95,3.49-17.92,4.78-27.26,4.36c-8.75-0.4-17.17,0.49-25.45,3.59
			c-10.17,3.79-20.88,4.75-31.45,2.65c-9.33-1.86-18.37-1.68-27.67-0.21c-8.5,1.34-17.15,1.73-25.73,2.54
			c-11.87-7.25-25.86-3.73-38.65-7.65c-11.12-3.42-23.87-2.96-32.97,7.66c-4.95,5.77-12.23,7.82-18.42,11.62
			c-5.58,3.42-11.22,4.11-17,0.88c-10.08-5.65-20.58-4.27-31.03-1.78c-5.83,1.39-11.53,3.19-17.63,2.4
			c-18.87-7.25-37.15-10.96-56.86-0.54c-10.78,5.69-24.16,8.57-36.54,5.31c-12.5-3.3-23.28-1.2-34.06,4.56
			c-18.17,0.58-35.38,4.26-50.27,15.49c-1.13-0.36-2.19-0.87-3.16-1.55c-1.8-1.56-3.7-1.84-5.67-1.19c-0.52-0.37-1.2-0.57-2.04-0.51
			l-34.99,2.47c-0.92-0.28-1.81-0.57-2.39-1.03c-4.8-0.43-9.6-0.87-14.4-1.31c-9.04-13.25-21.13-6.48-32.55-5.14
			c-17.23,2.01-33.37,12.53-51.61,6.7c-1.68-1.03-3.52-1.47-5.5-1.27c-9.38,10.11-20.39,3.93-30.87,3.19
			c-3.24,1.6-6.29,3.48-9.6,4.94c-2.3,0.91-4.65,1.63-7.05,2.21c-1.55,0.27-3.12,0.47-4.67,0.71c-1.58,0.1-3.16,0.14-4.72,0.21
			c-0.8-0.01-1.62-0.06-2.41-0.07c-1.66-0.13-3.36-0.29-5.01-0.43c-1.78-0.1-3.6-0.09-5.39,0c-3.14,0.31-6.06,1.12-8.42,3.07
			c-47.78,3.83-95.56,7.66-143.34,11.49c-1.4-1.4-3.15-2.69-5.33-3.84c-17.23-11.55-51.37-11.99-57.09,1.64
			c-5.96,14.2-13.48,15.05-25.26,11.32c-7.15-0.12-13.04,3.11-18.65,7.06c-5.95,0.19-11.94,1.04-17.75-1.16
			c-7.78-2.93-15.45-3.16-23.21,0.45c-4.94,2.3-10.21,1.85-15.63,1.21c-13.77-1.64-27.59-3.35-41.43-3.84
			c-23.22-0.83-46.47-0.73-69.71-1.02c-10.72-6.67-21.99-9.8-33.71-9.8c-5.7,0-11.51,0.75-17.41,2.18
			c-4.69,1.14-8.88,0.7-13.49-0.48c-20.29-5.16-40.68-9.92-61.05-14.74c-1.89-0.45-3.94-0.24-5.91-0.33
			c-2.93-2.81-6.27-4.68-10.49-4.37c-7.14,0.52-14.28,1.06-20.81,3.9c-0.52,0.23-1.04,0.47-1.56,0.73c-0.35,0.17-0.7,0.36-1.04,0.55
			c-0.42,0.23-0.83,0.47-1.24,0.72c-0.5,0.31-1,0.64-1.49,0.98c0,0.01-0.01,0.01-0.01,0.01c-6.43,3.41-13.22,6.31-19.21,10.39
			c-6.93,4.72-12.19,4.38-19.72-0.02c-15.81-9.24-33.05-13.41-51.25-6.14c-4.43,1.77-8.94,2.03-13.64,0.92
			c-13.04-3.1-26.12-2.32-39.35-0.88c-12.54,1.37-25.12,0.48-37.25-3.62c-8.49-15.19-17.55-17.46-34.05-8.54
			c-4.21,1.66-7.46-0.19-11.04-2.32c-6.99-4.15-14.8-5.96-22.89-4.81c-4.27,0.61-8.56,1.09-12.86,1.51v685.64h3000v-880.5
			C2999.64,1119.66,2999.29,1119.25,2998.93,1118.83z M815.12,1335.31c0.03,0.07,0.05,0.14,0.08,0.21c3.17-0.33,6.34-0.66,9.51-0.98
			L815.12,1335.31z"/>
		<path class="st2" d="M2998.93,1118.83c-2.44-2.88-4.77-6.63-9.64-5.68c-8.49,1.49-16.97,1.02-25.46,0.23
			c-2.08,1.73-4.13,3.09-6.12,3.96c-3.75-3.48-8.29-5.42-13.78-5.57c-0.22-0.4-0.44-0.81-0.66-1.25c-3.6-7.38-10.1-7.42-16.62-7.94
			c-51.17-1.54-102.28-1.34-152.97,7.38c-16.3,1.34-35.03-4.26-42.51,19.08c-1.98,6.2-11.46,8.92-18.93,2.77
			c-3.48-2.86-6.45-7.04-12.01-5.06c-3.41,0.65-6.76,2.02-8.56,4.72c-14.46,21.73-34.95,23.71-57.93,18.27
			c-4.51-1.07-9.15-1.52-13.8-0.58c-24.55-7.79-47.86,2.06-71.65,5.01c-7.95,0.98-15.81,0.74-23.65-0.79
			c-4.74-1.07-9.56-1.24-14.39-1.39c-1.9-0.05-3.78-0.08-5.68-0.08c-7.07-0.08-14.01,0.47-20.36,4.08c-1.41,0.66-2.82,1.2-4.21,1.85
			c-2.32,0.47-4.66,0.33-6.93,0.04c-15.94-5.22-31.15-4.07-45.8,4.85c-12.39,7.56-25.9,8.66-40.29,7.23
			c-20.43-2.04-41.02-3.09-61.37,1.54c-6.29,1.43-13.69,1.33-14.5,10.41c0.21,1.37,0.53,2.67,0.93,3.93
			c-6.03,1.65-12.1,3.01-18.49,2.54c-6.06-0.45-11.98,0.43-17.55,2.83c-6.97,2.99-14.01,3.18-21.46,2.25
			c-10.53-1.31-20.82-0.71-31.46,1.91c-13.42,3.31-27.07,6.9-41.21,6.35c-4.21,2.79-8.4,2.31-12.59-0.07l-0.21,0.35
			c-7.93,0.89-15.89,1.58-23.78,2.73c-7.88,1.15-16.06,1.72-23.46,4.36c-19.63,7-39.7,10.13-60.43,9.89
			c-1.98-0.03-4.38-0.51-5.89,0.39c-12.42,7.42-25.07,5.27-38.34,2.65c-7.6-1.5-15.87,0.42-23.83,0.83
			c-4.63,0.23-9.49,1.52-13.86,0.57c-13.39-2.91-26.19-0.49-39.36,1.76c-13.27,2.26-25.65,6.91-38.29,10.94
			c-5.76,1.84-11.3,4.14-17.36,1.43c-17.8-9.7-37.13-16.98-56.81-18.35c-27.14-1.9-53.79-4.79-80.3-11
			c-16.62-3.9-32.02,0.47-43.88,13.91c-0.29,2.22-0.25,4.39,0.14,6.6c1.44,0.97,2.85,1.95,4.19,2.96
			c-2.49,7.56-9.53,10.19-16.26,13.14c-2.39,0.11-4.78,0.22-7.18,0.33c-7.53,10.26-17.37,5.27-26.33,3.5
			c-7.53-1.48-14.76-4.48-22.46-1.16c-9.57-0.1-18.8,1.73-26.11,8.09c-8.51,7.4-17.86,8.2-28,5.47
			c-11.45-3.08-22.62-1.25-33.16,2.86c-8.95,3.49-17.92,4.78-27.26,4.36c-8.75-0.4-17.17,0.49-25.45,3.59
			c-10.17,3.79-20.88,4.75-31.45,2.65c-9.33-1.86-18.37-1.68-27.67-0.21c-8.5,1.34-17.15,1.73-25.73,2.54
			c-11.87-7.25-25.86-3.73-38.65-7.65c-11.12-3.42-23.87-2.96-32.97,7.66c-4.95,5.77-12.23,7.82-18.42,11.62
			c-5.58,3.42-11.22,4.11-17,0.88c-10.08-5.65-20.58-4.27-31.03-1.78c-5.83,1.39-11.53,3.19-17.63,2.4
			c-18.87-7.25-37.15-10.96-56.86-0.54c-10.78,5.69-24.16,8.57-36.54,5.31c-12.5-3.3-23.28-1.2-34.06,4.56
			c-18.17,0.58-35.38,4.26-50.27,15.49c-1.13-0.36-2.19-0.87-3.16-1.55c-1.8-1.56-3.7-1.84-5.67-1.19c-0.52-0.37-1.2-0.57-2.04-0.51
			l-34.99,2.47c-0.92-0.28-1.81-0.57-2.39-1.03c-4.8-0.43-9.6-0.87-14.4-1.31c-9.04-13.25-21.13-6.48-32.55-5.14
			c-17.23,2.01-33.37,12.53-51.61,6.7c-1.68-1.03-3.52-1.47-5.5-1.27c-9.38,10.11-20.39,3.93-30.87,3.19
			c-3.24,1.6-6.29,3.48-9.6,4.94c-2.3,0.91-4.65,1.63-7.05,2.21c-1.55,0.27-3.12,0.47-4.67,0.71c-1.58,0.1-3.16,0.14-4.72,0.21
			c-0.8-0.01-1.62-0.06-2.41-0.07c-1.66-0.13-3.36-0.29-5.01-0.43c-1.78-0.1-3.6-0.09-5.39,0c-3.14,0.31-6.06,1.12-8.42,3.07
			c-47.78,3.83-95.56,7.66-143.34,11.49c-1.4-1.4-3.15-2.69-5.33-3.84c-17.23-11.55-51.37-11.99-57.09,1.64
			c-5.96,14.2-13.48,15.05-25.26,11.32c-7.15-0.12-13.04,3.11-18.65,7.06c-5.95,0.19-11.94,1.04-17.75-1.16
			c-7.78-2.93-15.45-3.16-23.21,0.45c-4.94,2.3-10.21,1.85-15.63,1.21c-13.77-1.64-27.59-3.35-41.43-3.84
			c-23.22-0.83-46.47-0.73-69.71-1.02c-10.72-6.67-21.99-9.8-33.71-9.8c-5.7,0-11.51,0.75-17.41,2.18
			c-4.69,1.14-8.88,0.7-13.49-0.48c-20.29-5.16-40.68-9.92-61.05-14.74c-1.89-0.45-3.94-0.24-5.91-0.33
			c-2.93-2.81-6.27-4.68-10.49-4.37c-7.14,0.52-14.28,1.06-20.81,3.9c-0.52,0.23-1.04,0.47-1.56,0.73c-0.35,0.17-0.7,0.36-1.04,0.55
			c-0.42,0.23-0.83,0.47-1.24,0.72c-0.5,0.31-1,0.64-1.49,0.98c0,0.01-0.01,0.01-0.01,0.01c-6.43,3.41-13.22,6.31-19.21,10.39
			c-6.93,4.72-12.19,4.38-19.72-0.02c-15.81-9.24-33.05-13.41-51.25-6.14c-4.43,1.77-8.94,2.03-13.64,0.92
			c-13.04-3.1-26.12-2.32-39.35-0.88c-12.54,1.37-25.12,0.48-37.25-3.62c-8.49-15.19-17.55-17.46-34.05-8.54
			c-4.21,1.66-7.46-0.19-11.04-2.32c-6.99-4.15-14.8-5.96-22.89-4.81c-4.27,0.61-8.56,1.09-12.86,1.51v36.45
			c10.55-0.53,21.12-1.08,31.4-3.07c21.18-4.09,41.06-1.9,59.54,8.69c7.32,4.2,13.24,5.33,20.01,0.25c4-2.99,8.39-2.81,13.24-2.45
			c6.59,0.48,13.13,0.49,19.5,2.71c3.17,1.11,6.86,1.31,9.33-1.43c12.16-13.46,26.02-10.47,39.96-4.05
			c5.63,2.58,11.8,4.57,17.3,3.83c15.8-2.11,30.33,2.35,44.99,6.49c7.34,2.07,14.1,1.86,21.37-0.81c7.43-2.72,15.53-5.81,23.16-5.42
			c21.42,1.11,42.31-2.76,63.44-4.36c11.89-0.9,23.7-1.3,35.32,3.49c10.19,4.21,20.83,4.05,30.55-2.46
			c9.94,0.43,20.13-0.34,29.58,3.26c6.43,2.45,12.66,3.13,19.42,2.63c4.55-0.34,9.36,0.21,13.77,1.43c7.24,1.99,14.3,1.5,21.66,1.08
			c15.84-0.91,31.68-2.4,47.51,2.05c11.43,3.21,37.39-0.13,52.79-4.85c10,2.59,20.11,3.15,30.26,3.15c7.49,0,15.01-0.31,22.5-0.31
			c7.25,0,14.57,0.86,21.79,0.1c2.67,0.19,5.38,0.05,7.8-0.2c20.49-2.17,40.98-4.39,61.46-6.6c22.54-1.02,45.01-3.44,67.26-7.24
			c7.79-0.84,15.58-1.68,23.37-2.52c0.07,0.04,0.13,0.09,0.19,0.13c5.72,2.47,12.25-0.23,17.87,2.82c3.48,0.15,6.97,0.29,10.46,0.44
			c2.69-1.61,6.09-1.01,8.73-2.79c13.8-0.09,27.31,0.44,40.65-5.94c7.92-3.79,17.59-5.54,27.05-5.12c3.25,0.14,6.59-0.37,9.81-0.98
			c15.62-2.96,31.23-5.96,46.84-8.97c20.81,1.16,41.64,0.63,62.36-1.53c4.5,2.14,10.25-0.67,14.43,2.75
			c19.67-2.27,39.37-3.39,59.19-2.4c5.2,0.26,10.65-0.43,15.69-1.79c23.05-6.22,46.74-7.16,70.32-8.91
			c11.85-0.88,23.78-0.96,34.86-6.1c4.41,0.25,8.72,0.01,12.61-2.43c1.64-5.09,4.33-4.42,7.46-1.36c6.52,0.22,13.05,0.44,19.58,0.65
			c3.6-3.14,8.79-0.03,12.41-3.15c2.47-1.45,4.95-2.91,7.42-4.37c1.57-0.9,3.13-1.83,4.68-2.77c1.32-0.18,2.64-0.54,3.95-0.51
			c29.8,0.64,59.67,3.3,89.13-3.96c1.84-0.46,4.14-0.37,5.88,0.32c7.36,2.9,14.33,0.83,21.44-0.98c5.14-1.31,10.39-3.14,15.58-3.1
			c16.43,0.12,32.98,3.61,49.04-2.71c11.26,3.93,22.22,0,33.34-1.03c11.87-1.11,23.66-3.46,35.74-2.43
			c3.83,0.32,8.05-0.53,11.69-1.92c12.75-4.9,26.03-4.32,39.26-4.48c8.62-0.1,17,2.48,25.78,1.61c9.97-0.99,15.57-10.03,24.73-12.16
			c3.99,2.03,8.6,1.14,12.69,2.7c5.71,2.16,11.48,2.16,17.3,0.52c0.54-0.36,1.09-0.69,1.64-1.03c1.2,2.02,2.9,3.98,4.48,5.61
			c9.19,3.63,18.3,7.48,27.39,11.31c18.86-7.63,36.66-17.45,57.84-18.98c24.2-1.74,48.3-1.32,72.44-1.04
			c10.55,1.39,21.19,0.73,31.75,1.1c39.14,1.36,78.49-7.45,117.45,2.34c10.02,2.52,20.23,2.74,30.36,0.47
			c7.75-0.52,14.82-3.48,22-6.13c5.62-1.65,10.86,0.07,15.98,0.78c3.59-0.04,7-1.15,10.46-2.29c2.41,0.03,4.18-2.65,6.83-1.27
			c3.02,1.21,6.16,1.97,9.41,2.52c2.63-1.04,5.43,0.9,8.11,0.18c3.76-0.11,7.51-0.38,11.26-0.46c6.82-1.79,13.51-1.14,20.07,1.19
			c2.05,0.46,4.04,0.22,5.92-0.74c13.62-8.8,27.12,1.92,40.62-0.35c1.75-0.61,3.56-0.78,5.17-1.45c3.92-2.52,8.13-4.45,12.63-5.8
			c1.81-0.4,3.55-0.93,4.99-2.31c8.35-3.1,16.97-5.22,25.99-4.26c1.87-0.07,3.78-0.19,5.65,0.5c2.88-1.15,5.99,2.49,8.98,0.71
			c2.8-1.17,4.88-3.18,5.75-6.24c17.49-13.14,36.94-17.38,58.26-12.53c7.28,1.66,15.18,3.28,21.39-0.71
			c11.57-7.41,23.97-6.76,36.57-6.63c2.83,1.47,6.11,1.68,8.95,3.17c2.88,0.15,5.76,0.29,8.64,0.44c2.49-1.71,5.81-1.19,8.25-3.06
			l-0.38,0.21c1.25-1.64,2.73-3.04,4.4-4.25l-0.43,0.23c2.67-1.94,5.57-2.32,8.54-2.23c1.21,0.1,2.41,0.19,3.62,0.26
			c0.96,0.09,1.93,0.19,2.89,0.25c7.24,1.27,12.54,9.03,20.82,5.69c8.12-1.62,15.96-5.31,24.55-3.46
			c28.2,3.44,53.94-9.88,81.2-12.18c24.41-2.07,46.09-16,70.99-14.73c1.39-0.23,2.78-0.46,4.17-0.7c13.43,6.65,27.4,8.37,41.91,4.35
			c11.64-3.22,23.34-3.43,35.12-1.12c13.17,2.68,17.26-11.78,27.52-14.59c2.92-1.42,5.63-3.16,7.99-5.41l9.9,0.03
			c3.3-1.21,6.91-1.39,10.03-3.16c3.97-0.21,7.94-0.43,11.91-0.64c3.14,0.43,5.54-1.41,8.15-2.61c7.42-1.98,14.86-1.71,22.32-0.24
			c3.11-1.25,6.53-1.5,9.57-2.98c2.85-0.05,5.71-0.09,8.56-0.13c2.51,2.29,6.14,1.88,8.85,3.69c1.03-0.05,1.98,0.2,2.84,0.77
			c8.03,1.43,14.48,8.85,24.03,4.97c15.95-6.47,32.38-5.09,49.13-2.57c25.34,3.82,49.84,1.26,71.25-14.88
			c2.98-0.76,5.94-0.8,8.88-0.34v-34.02C2999.64,1119.66,2999.29,1119.25,2998.93,1118.83z"/>
	</g>
	<path class="st3" d="M485.79,1322.33c-3.27-8.53-7.54-16.69-12.79-24.17c-3.41-4.87-7.24-9.44-11.47-13.62
		c-4.02-3.97-8.71-7.17-12.76-11c-1.88-1.78-4.11-3.28-6.14-4.89l-0.01-0.01c-1.76-1.39-4.25,0.37-3.54,2.49
		c0.88,2.64,1.72,5.2,2.41,7.84c9.18,35.18-25.27,68.79-49.07,89.7c-23.21,20.38-82.25,58.51-64.15,102.55
		c0.38,0.93-0.72,1.76-1.51,1.14c-7.33-5.79-17.1-8.25-26.48-9.73c-26.24-4.16-52.93-0.97-78.59,5.18
		c-26.05,6.24-50.96,18.44-77.23,23.18c-11.03,1.99-22.25-0.34-32.52-4.44c-4.86-1.94-9.58-4.26-14.07-6.96
		c-1.8-1.08-5.01-3.26-8.12-5.59c-1.77-1.33-4.21,0.42-3.51,2.53c9.75,29.19,27.63,55.37,52.96,73.29
		c26.26,18.57,58.83,23.36,90.32,23.72c23.47,0.27,46.86-1.94,70.26-3.45c19.1-1.23,38.6-4.9,57.63-1.49
		c18.25,3.28,16.52,9.51,20.44,24.88c14.94,58.69,14.56,106.41,20,161.59c1.84,18.63,18.83,7.86,29.35,2.71
		c23.42-11.47,45.78-22.97,70.94-30.48c3.82-1.14,7.88-2.35,10.54-5.32c9.5-10.62-20.19-56.46-26.2-66.76
		c-8.96-15.34-17.58-30.87-26.71-46.11c-5.18-8.65-9.87-17.62-15.57-25.95c-4.43-6.47-21.73-29.34-24.15-36.61
		c-1.22-3.66,2.91-6.76,5.27-8.93c15.19-13.98,29.21-29.37,40.71-46.56c10.97-16.38,19.49-34.35,24.78-53.36
		c2.73-9.83,4.61-19.89,5.69-30.03c0.57-5.39,0.54-10.65,1.07-16.02c0.63-6.35,0.96-12.74,0.94-19.12
		c-0.04-14.37-1.86-28.79-6.1-42.55C487.63,1327.38,486.75,1324.84,485.79,1322.33z"/>
	<g>
		<path class="st4" d="M3000,1593.86V2000H0v-388.33c3.98,0.1,7.97-0.74,12.05-1.91c5.7-1.63,11.67-2.42,17.57-3.31
			c10.03-1.51,17.02,5.7,25.25,9.3c0.04,0.02,0.06,0.11,0.07,0.26c32.97,3.35,65.94,6.7,98.9,10.06c4.25-0.13,8.49-0.25,12.73-0.38
			c1.63-0.05,2.63,0.83,3.05,1.97c0.01,0.01,0.03,0.01,0.04,0.02c0.61,0.06,1.21,0.12,1.82,0.18c1.46,0.15,2.42,0.98,2.91,2.01
			c11.4,4.83,23.05,5.05,35.1,1.82c12.22-5.6,19.3,4.09,27.85,9.38l0.21,0.02c1.5,1.13,2.77,2.5,4.15,3.76l1.88,0.1l1.9-0.01
			c6.2-3.34,12.58-2.84,19.3-1.65c7.79,1.39,15.72,2.25,23.62,2.55c28.38,1.08,56.77,1.83,85.16,2.7c4.44,1.35,8.9,3.9,13.32,3.84
			c19.18-0.25,38.57,1.47,57.47-2.45c14.71-3.06,28.87-3.87,43.06,1.74c2.37,0.94,6.49,2.12,7.51,1.04
			c7.69-8.2,16.48-1.56,24.52-1.97c16.46-0.83,32.86-4.37,49.56-1.22c7.34,1.38,14.36-2.41,20.92-5.64
			c15.34-7.55,30.86-6.25,46.03-0.43c7.26,2.78,14.17,2.99,21.47,2.11c6.71-0.8,12.99-0.59,19.18,3.21
			c11.33,6.98,23.2,8.78,35.37,1.43c3.75-2.26,7.66-1.66,11.15,1.07c11.93,9.36,24.75,14.04,40.55,11.96
			c6.55-0.86,14.49,2.66,20.64,6.2c11.88,6.85,25.29,7.25,37.89,10.94c2.5,0.73,5.44,1.32,7.87,0.72
			c13.13-3.27,26.61-0.15,39.7-2.36c11.83-2.01,22.35,2.06,32.94,5.84c1.62,0.58,3.15,1.39,4.52,2.41
			c16.92,0.84,33.83,1.67,50.74,2.51c3.97-0.34,7.92-0.71,11.86-1.08c1.42-0.14,2.36,0.51,2.85,1.47c1.27,0.1,2.52,0.35,3.72,0.78
			c23.57,8.38,48.68,6.27,72.7,11.29c6.49,1.35,12.89,3.14,19.33,4.72c4.47-1.1,9.22-3.75,13.38-3.02
			c16.98,2.98,33.73-0.84,50.56-0.84c0.97,0,1.93,0.01,2.9,0.04c9.45-3.25,18.87-5.21,29.04-2.89c4.28,0.98,9.36,0.39,13.63-0.92
			c14.38-4.41,28.88-2.88,42.87,0.15c7.6,1.65,15,1.95,21.21-0.68c9.08-3.85,17.47-3.58,25.81-1.31
			c11.23-2.03,22.45-2.97,33.76-3.34c1.06-0.59,2.12-1.17,3.18-1.76l-0.21-0.23c0.69,0.69,1.37,1.31,2.05,1.87
			c6.35-0.12,12.74-0.1,19.17-0.01c0.76,0.01,1.51,0.02,2.27,0.03c11.16-5.41,23.94-7.59,36.8-7.41c6.53,0.08,11.68,3.25,16.99,6.11
			c-0.07-0.97,0.13-1.97,0.59-2.98c3.97-8.25,12.67-7.72,18.87-7.29c25.73,1.81,50.72-4.66,76.16-5.26
			c3.91-0.14,7.82-0.29,11.72-0.44c9.35-1.15,18.86-5.89,27.86,1.19c10.48,4.83,22.23,2.93,33.09,6.2c3.37,1.02,7.79-0.8,11.57-1.88
			c5.75-1.63,11.42-3.61,17.03-5.69c9.57-3.54,19.29-4.85,29.37-2.73c6.58,1.38,13.24,2.17,19.61-0.75c7.82-3.6,15.65-2.8,23.33-0.1
			c7.08,2.49,13.97,3.39,21.5,2.08c4.41-0.76,9.21,0.43,13.79,1.08c14.62,2.06,29.01,2.23,42.92-3.85c4.25-1.86,9.02-2.7,13.06-4.9
			c18.23-9.95,37.5-9.42,56.21-3.67c21.05,6.47,41.94,3.94,63,2.64c12.5-0.77,24.78-1.89,37.53-0.96
			c14.44,1.05,29.14-0.28,43.67,1.92c4.73,0.72,9.24-0.23,13.55-2.33c10.06-4.91,20.84-3.36,31.41-3.27
			c4.65,0.04,8.68,1.77,12.47,4.07c0.82-1.35,1.7-2.66,2.53-4.01c15.77-6.45,33-6.24,48.39-2.99c17.85,3.76,33.87-1.18,50.68-2.54
			l0.1-0.04c1.47-1.23,2.8-2.63,4.35-3.77l-0.23,0.34c9.64-9.25,22.82-3.58,33.61-7.99c20.94-11.2,43.06-16.42,66.94-14.55
			c14.36,1.13,27.25-3.95,39.42-11.46c12.54-7.75,25.82-13.38,41.17-9.98c12.05-3.56,24.35-5.05,36.83-6.66
			c18.13-2.33,34.83-0.59,52.48,3.46c15.08,3.45,31.46,4.7,46.9-2.05c3.48-1.52,8.22-2.46,11.63-1.35
			c9.84,3.19,18.22-0.16,26.56-4.23c8.81-4.31,17.12-6.27,25.97,0.33c4.35,3.25,10.07,3.62,15.26,1.42
			c6.66-2.84,12.62-1.68,19.02,1.14c6.77,2.98,14.23,2.73,21.55,2.29c3.71-2.95,5.21-8.41,10.69-9.38c2.37-1.03,4.81-1.64,7.38-1.84
			c8.48,1.47,17.2,1.75,25.39,4.37c5.84,1.87,9.65,4.03,11.63,6.96c9.34,0.05,18.68,0.09,28.02,0.13c8.24-1.8,16.55-3.3,24.82-4.96
			l0.08,0.04c0.07,0.94,0.12,1.88,0.14,2.83c4.42,4.46,9.99,4.24,15.76,4.58c3.54,0.21,6.55,1.16,8.66,3.01
			c11.99-0.85,23.99-1.7,35.99-2.55c1.02-0.08,1.78,0.24,2.32,0.76c1.72-0.08,3.44-0.16,5.16-0.24c14.07,6.08,28.15,7.85,42.38,0.39
			c3.05-1.59,6.5-1.69,9.73-0.51c15.2,5.52,31.19,5.08,46.9,7.14c23.44,3.08,46.27-0.04,69.41-0.71
			c20.63-0.59,41.13-3.44,61.76-2.95c6.17,0.15,11.89-1.02,17.55-3.14c6.86-2.57,13.74-5.08,20.6-7.61c2.67-0.36,5.33-0.71,8-1.07
			C2997.05,1596.42,2998.44,1594.81,3000,1593.86z"/>
		<path class="st5" d="M3000,1593.86v28.21c-8.78,1.11-17.61,3.2-26.65,4.75c-16.02,2.74-33.12,0.64-49.05,6.81
			c-17.95,0.47-35.86,0.56-53.23,6.17c-10.62,3.42-21.01-1.13-31.49-2.18c-35.19-3.5-70.11-10.13-105.79-7.77
			c-9.75,0.64-20.06,1.14-28.93-5.06c-3.25-2.94-10.27-4.03-12.06-7.69c-4.72,0.63-9.46,1.18-14.2,1.65c-1.4,1.07-2.8,2.14-4.2,3.21
			l0.46,0.47c-10.61,9.05-22.43,12.42-35.98,7.63c-0.68-0.52-1.43-0.7-2.27-0.55c-2.42-0.62-4.17-2.21-5.82-3.96l-0.1-0.04
			c-1.93-2.57-5.72-1.68-7.72-4.13c-0.91-0.6-1.91-0.86-3-0.79c-0.09-0.07-0.19-0.12-0.28-0.17c-7.37-0.32-14.73-0.84-22.08-1.55
			c-0.41,1-0.86,2.05-1.36,3.14c-1.71,1.72-3.33,3.47-4.92,5.25c-3.25,0.89-6.58,1.35-9.91,1.49c-7.72,1.78-15.36,4.63-23.53,2.78
			c-1.92-0.4-3.83-0.84-5.7-1.34c-14.42,3.65-27.73-6.97-42.17-3.23c-1.23-1.26-2.35-2.63-3.34-4.1
			c-19.17-0.96-38.21-2.84-57.4,1.94c-7.27,1.81-15.82-0.65-23.62-2.09c-8.06-1.48-15.61-2.45-23.16,2.13
			c-2.66,1.61-6.38,1.98-9.64,2.04c-8.38,0.16-14.85,4.47-22.05,8.05c-19.37,9.62-37.8,22.15-60.63,22.83
			c-3.25,0.09-6.81,0.91-9.6,2.5c-12,6.82-25.75,5.81-38.54,8.99c-4.34,1.08-9.36,0.8-13.81-0.11c-17.2-3.52-34.45-2.49-51.73-1.34
			c-2.62,0.18-5.39,0.31-7.8,1.23c-16.22,6.2-16.83,6.37-26.78,4.04l-0.03,0.17c-6.21-4.02-13.9,0.15-20.16-3.62
			c-1.24-0.48-2.53-0.74-3.86-0.77c-14.57-3.22-27.64,2.65-41.01,6.72l-0.08-0.2c-7.87-1.19-15.87-1.23-23.26,1.52
			c-7.8,2.9-15.36,2.29-23.13,1.01c-7.62-1.34-14.45,1.68-21.42,3.87c-5.94-0.05-11.87-0.1-17.8-0.15
			c-2.03-0.42-3.59-1.59-5.03-2.95c-0.34,0.03-0.71,0.04-1.09-0.03c-2.21-0.39-4.42-0.79-6.62-1.19c-2.68,2.12-6.86,1.69-9.67,3.58
			c-7.3-0.37-14.76,0.1-21.85-1.32c-7.37-1.48-13.7-2.54-20.72,2.13c-5.65,3.76-12.95,1.74-19.54,0.92
			c-7.89-0.99-15.76-2.23-23.65-3.26c-8.73-1.13-16.93-0.8-24.76,4.65c-5.47,3.81-12.25,5.14-19.04,2.18
			c-17.39-7.6-35.24-4.65-52.79-1.35c-10.42,1.95-20.57,4.71-31.33,4.79c-11.12,0.09-21.51,1.22-31.69,8.36
			c-11.32,7.95-25.94,5.65-38.82,2.84c-11.26-2.46-22.5-1.2-33.7-2.61c-8.43-1.05-16.9,3.17-24.6,7.04
			c-7.67,3.85-14.53,4.5-22.62,0.59c-13.25-6.42-28.53-4.69-42.45-8.98c-2.08-0.64-5.36,0.6-7.33,2.01
			c-4.53,3.24-9.36,5.07-14.84,5.01c-5.07-0.06-8.99,2.11-12.2,5.76c-4.42,5-10.18,6.26-16.34,5.38
			c-20.55-2.93-41.02-1.53-61.49,0.59c-3.04-1.85-6.11-2.31-9.24-0.21l0.52-0.09c-5.25,3.77-10.6,2.64-15.97,0.3
			c-0.67-0.46-1.41-0.61-2.21-0.45c-2.44-0.64-4.19-2.28-5.86-4.04l-0.04-0.03c-2.12-3.85-5.13-6-8.63-7.12l-65.92-0.29
			c-4.7,2.38-9.48,3.65-14.92,2.74c-2.55-0.42-5.54-1.01-7.76-0.11c-11.51,4.66-23.09,2.62-34.73,1.19
			c-1.26-0.15-2.58,0.3-3.88,0.47c-1.94-0.27-3.92-0.36-5.81-0.85c-0.56-0.15-1.05-0.34-1.47-0.56c-4.65,0.86-9.3,1.71-13.95,2.57
			c1.14,2.08,0.09,5.42-3.02,5.38c-3.51-0.04-7.02-0.08-10.53-0.12c-6.52,3.9-13.62,6.57-21.67,7.18
			c-11.55,1.36-21.68-3.14-31.77-7.75c-3.42,3.82-6.66,8.52-12.13,2.52l0.46,0.2c-5.91-4.01-12.6,0.92-18.58-1.74
			c-0.44-0.24-0.9-0.45-1.35-0.66c-1.66,0.71-3.32,1.41-4.98,2.11c-17.24,0.48-34.57-0.44-51.63,3.03
			c-16.98-6.03-35.16,0.19-52.21-5.09c-3.84-0.25-7.69-0.5-11.53-0.74c-1.31-0.05-2.8,0.3-3.92-0.19c-16.6-7.28-34.47-7.12-51.98-9
			c-11.85-1.68-23.68-3.52-35.73-2.4c-1.96,0.18-3.99-0.04-5.96-0.31c-2.4-0.33-5.11-0.83-6.09-3.1
			c-16.69,3.02-33.77,3.12-50.78,2.6c-5.08,0.93-10.19,1.75-15.53,1.37c-15.15-1.08-29.98-5.76-45.47-3.48
			c-3.65,0.53-7.7-1.74-11.57-2.72c-13.61-3.45-26.99-5.48-41.29-2.06c-13.17,3.15-26.33-0.96-39.03-5.21
			c-8.35-3.52-16.85-3.72-25.25-0.45c-7.69,3-15.45,3.11-23.55,2.31c-12.52-1.23-25.09-1.4-37.66-2.94
			c-12.9-1.58-26.03-2.13-39.46,1.54c-11.99,3.28-25.25,0.96-37.23-3.6c-8.32-3.16-16.02-4.85-25.1-2.4
			c-6.85,1.85-14.51,0.53-21.8,0.93c-24.73,1.33-48.85-3.81-73.13-7.07c-5.76-0.78-11.18-4.13-16.75-6.3
			c-3.82-1.1-7.77-3.43-11.44-3.06c-13.14,1.33-25.99,1.44-39.25-0.07c-7.21-0.82-14.33-0.12-20.73-4.28
			c-4.37-2.85-9.23-3.87-14.16-4.61c-4.93-0.76-9.93-1.24-14.58-3.03c-23.63-0.52-47.27-0.95-70.9-1.66
			c-4.54-0.13-9.05-1.33-13.56-2.15c-6.44-1.17-12.86-2.45-19.29-3.68c-7.93,0.47-15.85,0.91-23.7-0.85
			c-3.98-1.82-7.96-2.15-11.92,0.07l0.09,0.98c-19.75-3.98-40.33-4.67-58.65-14.4c-7.64-0.22-15.28-0.44-22.92-0.67
			c-2.14-0.06-3.2-1.58-3.28-3.19c-15.08-1.54-30.16-3.07-45.24-4.6c-0.56,0.46-1.32,0.73-2.31,0.65c-12.56-1-25.12-2-37.68-3.01
			c-13.63,0.32-27.07,0.59-40.64-3.49c-0.91-0.27-1.83-0.51-2.75-0.71v-7.69c3.98,0.1,7.97-0.74,12.05-1.91
			c5.7-1.63,11.67-2.42,17.57-3.31c10.03-1.51,17.02,5.7,25.25,9.3c0.04,0.02,0.06,0.11,0.07,0.26c32.97,3.35,65.94,6.7,98.9,10.06
			c4.25-0.13,8.49-0.25,12.73-0.38c1.63-0.05,2.63,0.83,3.05,1.97c0.01,0.01,0.03,0.01,0.04,0.02c0.61,0.06,1.21,0.12,1.82,0.18
			c1.46,0.15,2.42,0.98,2.91,2.01c11.4,4.83,23.05,5.05,35.1,1.82c12.22-5.6,19.3,4.09,27.85,9.38l0.21,0.02
			c1.5,1.13,2.77,2.5,4.15,3.76l1.88,0.1l1.9-0.01c6.2-3.34,12.58-2.84,19.3-1.65c7.79,1.39,15.72,2.25,23.62,2.55
			c28.38,1.08,56.77,1.83,85.16,2.7c4.44,1.35,8.9,3.9,13.32,3.84c19.18-0.25,38.57,1.47,57.47-2.45
			c14.71-3.06,28.87-3.87,43.06,1.74c2.37,0.94,6.49,2.12,7.51,1.04c7.69-8.2,16.48-1.56,24.52-1.97
			c16.46-0.83,32.86-4.37,49.56-1.22c7.34,1.38,14.36-2.41,20.92-5.64c15.34-7.55,30.86-6.25,46.03-0.43
			c7.26,2.78,14.17,2.99,21.47,2.11c6.71-0.8,12.99-0.59,19.18,3.21c11.33,6.98,23.2,8.78,35.37,1.43
			c3.75-2.26,7.66-1.66,11.15,1.07c11.93,9.36,24.75,14.04,40.55,11.96c6.55-0.86,14.49,2.66,20.64,6.2
			c11.88,6.85,25.29,7.25,37.89,10.94c2.5,0.73,5.44,1.32,7.87,0.72c13.13-3.27,26.61-0.15,39.7-2.36
			c11.83-2.01,22.35,2.06,32.94,5.84c1.62,0.58,3.15,1.39,4.52,2.41c16.92,0.84,33.83,1.67,50.74,2.51
			c3.97-0.34,7.92-0.71,11.86-1.08c1.42-0.14,2.36,0.51,2.85,1.47c1.27,0.1,2.52,0.35,3.72,0.78c23.57,8.38,48.68,6.27,72.7,11.29
			c6.49,1.35,12.89,3.14,19.33,4.72c4.47-1.1,9.22-3.75,13.38-3.02c16.98,2.98,33.73-0.84,50.56-0.84c0.97,0,1.93,0.01,2.9,0.04
			c9.45-3.25,18.87-5.21,29.04-2.89c4.28,0.98,9.36,0.39,13.63-0.92c14.38-4.41,28.88-2.88,42.87,0.15c7.6,1.65,15,1.95,21.21-0.68
			c9.08-3.85,17.47-3.58,25.81-1.31c11.23-2.03,22.45-2.97,33.76-3.34c1.06-0.59,2.12-1.17,3.18-1.76l-0.21-0.23
			c0.69,0.69,1.37,1.31,2.05,1.87c6.35-0.12,12.74-0.1,19.17-0.01c0.76,0.01,1.51,0.02,2.27,0.03c11.16-5.41,23.94-7.59,36.8-7.41
			c6.53,0.08,11.68,3.25,16.99,6.11c-0.07-0.97,0.13-1.97,0.59-2.98c3.97-8.25,12.67-7.72,18.87-7.29
			c25.73,1.81,50.72-4.66,76.16-5.26c3.91-0.14,7.82-0.29,11.72-0.44c9.35-1.15,18.86-5.89,27.86,1.19
			c10.48,4.83,22.23,2.93,33.09,6.2c3.37,1.02,7.79-0.8,11.57-1.88c5.75-1.63,11.42-3.61,17.03-5.69
			c9.57-3.54,19.29-4.85,29.37-2.73c6.58,1.38,13.24,2.17,19.61-0.75c7.82-3.6,15.65-2.8,23.33-0.1c7.08,2.49,13.97,3.39,21.5,2.08
			c4.41-0.76,9.21,0.43,13.79,1.08c14.62,2.06,29.01,2.23,42.92-3.85c4.25-1.86,9.02-2.7,13.06-4.9c18.23-9.95,37.5-9.42,56.21-3.67
			c21.05,6.47,41.94,3.94,63,2.64c12.5-0.77,24.78-1.89,37.53-0.96c14.44,1.05,29.14-0.28,43.67,1.92
			c4.73,0.72,9.24-0.23,13.55-2.33c10.06-4.91,20.84-3.36,31.41-3.27c4.65,0.04,8.68,1.77,12.47,4.07c0.82-1.35,1.7-2.66,2.53-4.01
			c15.77-6.45,33-6.24,48.39-2.99c17.85,3.76,33.87-1.18,50.68-2.54l0.1-0.04c1.47-1.23,2.8-2.63,4.35-3.77l-0.23,0.34
			c9.64-9.25,22.82-3.58,33.61-7.99c20.94-11.2,43.06-16.42,66.94-14.55c14.36,1.13,27.25-3.95,39.42-11.46
			c12.54-7.75,25.82-13.38,41.17-9.98c12.05-3.56,24.35-5.05,36.83-6.66c18.13-2.33,34.83-0.59,52.48,3.46
			c15.08,3.45,31.46,4.7,46.9-2.05c3.48-1.52,8.22-2.46,11.63-1.35c9.84,3.19,18.22-0.16,26.56-4.23
			c8.81-4.31,17.12-6.27,25.97,0.33c4.35,3.25,10.07,3.62,15.26,1.42c6.66-2.84,12.62-1.68,19.02,1.14
			c6.77,2.98,14.23,2.73,21.55,2.29c3.71-2.95,5.21-8.41,10.69-9.38c2.37-1.03,4.81-1.64,7.38-1.84c8.48,1.47,17.2,1.75,25.39,4.37
			c5.84,1.87,9.65,4.03,11.63,6.96c9.34,0.05,18.68,0.09,28.02,0.13c8.24-1.8,16.55-3.3,24.82-4.96l0.08,0.04
			c0.07,0.94,0.12,1.88,0.14,2.83c4.42,4.46,9.99,4.24,15.76,4.58c3.54,0.21,6.55,1.16,8.66,3.01c11.99-0.85,23.99-1.7,35.99-2.55
			c1.02-0.08,1.78,0.24,2.32,0.76c1.72-0.08,3.44-0.16,5.16-0.24c14.07,6.08,28.15,7.85,42.38,0.39c3.05-1.59,6.5-1.69,9.73-0.51
			c15.2,5.52,31.19,5.08,46.9,7.14c23.44,3.08,46.27-0.04,69.41-0.71c20.63-0.59,41.13-3.44,61.76-2.95
			c6.17,0.15,11.89-1.02,17.55-3.14c6.86-2.57,13.74-5.08,20.6-7.61c2.67-0.36,5.33-0.71,8-1.07
			C2997.05,1596.42,2998.44,1594.81,3000,1593.86z"/>
	</g>
</g>
<g>
	<g>
		<path class="st4" d="M1424.66,1870.56c1.6,0,2.27-1.98,0.29-1.98C1423.35,1868.58,1422.69,1870.56,1424.66,1870.56
			L1424.66,1870.56z"/>
	</g>
</g>
<g>
	<g>
		<path class="st4" d="M1759.11,1891.5c0.64,0,1.53-0.12,2.05-0.55c0.37-0.3,0.47-0.65-0.17-0.65c-0.64,0-1.53,0.12-2.05,0.55
			C1758.57,1891.16,1758.47,1891.5,1759.11,1891.5L1759.11,1891.5z"/>
	</g>
</g>
<g>
	<g>
		<path class="st4" d="M1759.93,1901.14c1.67,0,2.21-2.18,0.24-2.18C1758.49,1898.96,1757.96,1901.14,1759.93,1901.14
			L1759.93,1901.14z"/>
	</g>
</g>
<g>
	<g>
		<path class="st4" d="M1871.86,1819.83c0.64,0,1.53-0.16,2.05-0.55c0.39-0.29,0.47-0.55-0.15-0.55c-0.64,0-1.53,0.16-2.05,0.55
			C1871.33,1819.58,1871.24,1819.83,1871.86,1819.83L1871.86,1819.83z"/>
	</g>
</g>
</svg>
