<?xml version="1.0" encoding="utf-8"?>
<!-- Generator: Adobe Illustrator 23.0.1, SVG Export Plug-In . SVG Version: 6.00 Build 0)  -->
<svg version="1.1" id="Layer_1" xmlns="http://www.w3.org/2000/svg" xmlns:xlink="http://www.w3.org/1999/xlink" x="0px" y="0px"
	 viewBox="0 0 100 100" style="enable-background:new 0 0 100 100;" xml:space="preserve">
<style type="text/css">
	.st0{fill:#355688;}
</style>
<path class="st0" d="M89.4,57.2H14.6c-4.2,0-7.6-3.4-7.6-7.6v0c0-4.2,3.4-7.6,7.6-7.6h74.8c4.2,0,7.6,3.4,7.6,7.6v0
	C97,53.7,93.6,57.2,89.4,57.2z"/>
<path class="st0" d="M89.4,32.8H14.6c-4.2,0-7.6-3.4-7.6-7.6v0c0-4.2,3.4-7.6,7.6-7.6h74.8c4.2,0,7.6,3.4,7.6,7.6v0
	C97,29.4,93.6,32.8,89.4,32.8z"/>
<path class="st0" d="M89.4,81.5H14.6C10.4,81.5,7,78,7,73.9v0c0-4.2,3.4-7.6,7.6-7.6h74.8c4.2,0,7.6,3.4,7.6,7.6v0
	C97,78,93.6,81.5,89.4,81.5z"/>
</svg>
